/* XPM */
static char *_604c6f9c8144b7d8cc292a1ae0f18037Hx7SNRl1NeJzIpu[] = {
/* columns rows colors chars-per-pixel */
"64 64 126 2 ",
"   c #2B150C",
".  c #2F180F",
"X  c #3C1B0D",
"o  c #241614",
"O  c #2E1811",
"+  c #2B1B1A",
"@  c #341C13",
"#  c #391E14",
"$  c #341F19",
"%  c #3D2116",
"&  c #3C251B",
"*  c #3B2526",
"=  c #421D0C",
"-  c #411F10",
";  c #4C220F",
":  c #422315",
">  c #4C2412",
",  c #44261A",
"<  c #49271B",
"1  c #442A1D",
"2  c #4C2A1C",
"3  c #512713",
"4  c #542A15",
"5  c #592C16",
"6  c #542D1C",
"7  c #5A2E1B",
"8  c #57301F",
"9  c #5D311D",
"0  c #61341E",
"q  c #442721",
"w  c #442A25",
"e  c #4B2E24",
"r  c #452C2A",
"t  c #4A2F2A",
"y  c #552E21",
"u  c #473026",
"i  c #4D3125",
"p  c #473028",
"a  c #4D322C",
"s  c #533224",
"d  c #5C3423",
"f  c #54352B",
"g  c #59362B",
"h  c #56392C",
"j  c #5D3B2D",
"k  c #4F3430",
"l  c #513632",
"z  c #563A34",
"x  c #5C3C33",
"c  c #633622",
"v  c #663924",
"b  c #6A3B26",
"n  c #643C2C",
"m  c #6C3E29",
"M  c #703F29",
"N  c #633E31",
"B  c #5E4032",
"V  c #5F4038",
"C  c #64412F",
"Z  c #6E412B",
"A  c #73432D",
"S  c #79462F",
"D  c #644235",
"F  c #6C4434",
"G  c #6C4936",
"H  c #644339",
"J  c #6A4639",
"K  c #6C493C",
"L  c #754630",
"P  c #794730",
"I  c #764934",
"U  c #7C4B34",
"Y  c #734C3B",
"T  c #7B4E3A",
"R  c #7E5037",
"E  c #76503E",
"W  c #7D513C",
"Q  c #6D4C41",
"!  c #714E42",
"~  c #755244",
"^  c #7C5443",
"/  c #7E5945",
"(  c #7C574A",
")  c #7E5949",
"_  c #814E36",
"`  c #814F38",
"'  c #825037",
"]  c #84533B",
"[  c #89563D",
"{  c #86583E",
"}  c #8B593F",
"|  c #835641",
" . c #885740",
".. c #855A45",
"X. c #8C5B42",
"o. c #845C4B",
"O. c #8B5E49",
"+. c #915E44",
"@. c #8D6044",
"#. c #87604D",
"$. c #8D614C",
"%. c #936146",
"&. c #986246",
"*. c #93634B",
"=. c #99664B",
"-. c #96684A",
";. c #9C6A4E",
":. c #876151",
">. c #8D6452",
",. c #936651",
"<. c #966954",
"1. c #9B6B54",
"2. c #9C6E59",
"3. c #9E715B",
"4. c #A06F4E",
"5. c #A2714F",
"6. c #A06D51",
"7. c #A47353",
"8. c #A87755",
"9. c #AA7956",
"0. c #A2745D",
"q. c #A8775E",
"w. c #AD7C59",
"e. c #B07F5A",
"r. c #A47660",
"t. c #A67962",
/* pixels */
"L U ] X.+.4.+.=.+.X._ P M U _  .%.;.E W @.{ L C Z Z R W @.-.8./ G -.;.;.;.+.[ U [ [ [ +.X.&.%.} } _ ' ' _ _ U [ } T ;.=.[ ] S M ",
"U U ] +.6.=.*.=.+. .` A P U ]  .=.;.^ W @.] R Z 9 v R { @.-.5.{ J -.;.;.;.4.+.} X.+.%.=.O.1.%.+.] } { [ ] ] ] } X.W ;.=.X.] U S ",
"] [ +.+.6.=.O.1.6.+. ._ ] ] [ +.1.5.~ W @.{ R P C Z L R @.-.5.@.u #.=.4.;.;.;.;.4.6.6.;.X.=.1.+.X.+.} } } } } X.+.| ;.=.=. .U ' ",
"X.+.+.4.1.6.=.0.6.=.+. .} +.+.6.;.;.W | %.@.] R R R R { @.-.9./ * D ;.;.6.4.;.;.;.;.;.;.$.6.=.=.&.%.&.%.+.%.%.%.&.o.6.;.=.&. .X.",
"..O.:.*.>.$.! N |  . .] ` T ` T T T N i i q 1 , & % & & 1 i h & q w ..*.X.$. .O.X.X.*.*./ ..Y  . .W T U W R ]  .O.Y Y ( *.$.$.o.",
"$.*.*.*.<.<.<.* X.X.X.] _ _ U m A A U g + . . .               % 6 s 6.6.1.&.{ } } +.&.1.;.6.T  .' U _ _ ` ] [ +.&.1...o.<.,.<.*.",
"o.O.O.*.,.<.<.* X.X. ._ U L P m m L U L i , < , : : X X X ; % 4 7 g 4.=.%.X.' _ _ ] +.=.;.6.T ] U U S U U ` ] X.+.;.| o.,.<.$.>.",
"O.O.O.,.*.<.,.*  .+. .` U L m m A P U U h s 9 7 5 4 ; ; ; 3 5 5 9 f 6.=.+.[ U A _ _ ] +.=.1.F _ _ U A I L U ] [ +.&.T o.,.,.*.O.",
"| | X.o.>.-.>.*  .+.[ _ _ U S m Z S I U f d d 0 9 5 3 ; 3 4 9 9 c f 4.&.X.' _ m S U ' X.=.6.I _ U P A Z S U _ [ X.&.T o.<.,.O.O.",
"Y ^ | W ..,.,.* X.X.X.] _ P P L Z U U _ h d v c 0 0 3 5 5 9 0 v b g 6.=.[ ] U m Z U ' +.%.=.F ` U P Z A Z A U [ X.&.T ( <.$.O...",
"| O.O.$.$.*.>.* +.X.X.[ ` _ U U P P U ] h n m m 0 b 9 0 0 0 v m m n ;.=.+.] P U A U ] +.=.4.Y ' U P A P U U _ ] +.&./ o.,.$.O.O.",
"X.O.$.$.,.<.>.* *.%.} [ [ ] ` _ ' P [ [ z n A A A b b b b m A S L n 1.=.%.[ [ ] U [ +.&.;.1.T [ ' U U U U _ [ X.&.-.H o.,.<.$.*.",
"O.,.O.<.,.<.,.* -.-.%.{ [  .{ ] [ ] ] } z r Z U P A A A A A S U F h 1.=.=.&.X. .] +.&.=.;.7.T X.[ R ' R ` [ X.%.=.@.r O.<.,.<.O.",
"x H D H J B h K O.%.@.] ] ] W  ...@.D F N h N I I I I I I I T N e q n N n N N n j n C D B h t  .X.] |  . .{  .O.Y V z x J H H N ",
"h h j B B u B w.8.4.-.-.%.%.%.%.-.5.G Y +.X.[ ] ] ] ] ]  .+.+.K y 7 - # : : : # : , , , $ + H ;.;.%.%.%.+.%.=.;...V 1.G x j h f ",
"R ' X.%.@.E $.9.5.-.%.@.{ { { @.%.=.E F [ ] [ ] ' ' ] ' ] [ X.Y y y c c c c d v b b b b s J 4.;.=.%.+.X.+.+.+.%.;.~ ;.-.X.] ' U ",
"' ] X.=.;.^ #.9.4.-.@.' R R R { @.%.Y G [ ' ' U U I _ ` ` ] +.I y 9 c c c c c b m M M M f =.;.=.%.} [ ] [ [ } %.&.Y ;.=.+.[ ' _ ",
"I ' { &.;.W @.5.-.%.{ U I A Z I { @.G G ] ' A A I I P P _ ] [ J d c 9 c c 9 M M M A P A g ;.=.%.[ [ _ _ U ' ] } +.Y ;.=. .] U A ",
"Z S U  .%.Y #.5.-.%.R R Z 9 Z R { %.G G ] R U Z M I L M _ _ [ I c v c c 9 b M M M P P L g =.&.+.{ _ U U U P ' [ +.J ;.=.} ' S m ",
"U ' { %.=.~ @.5.-.@.{ R A Z Z G R @.Y G ' ' S U M m M P _ _ [ F g b b c c M M P P U U U j =.+.+.] P S A A U _ ] X.J 4.=.} ] U S ",
"_ ] X.=.;.^ @.7.-.-.{ R I L I R { @.K J ] ' U P M L P L _ ]  .F v M b c v M M M P _ _ _ N =.+. .U A A m v S T [ X.Y ;.=.+.[ ' ] ",
"` X.&.;.4./ *.9.4.@.%.{ R R ] X.%.=.Y I ] ' _ P P P U U _ ]  .F m M v M m M _ M _ _ _ _ N =.+.X.[ ` U P m U U ' +.Y 6.;.=.+.[ [ ",
" .*.-.-.1.K / 7.4.-.@...{ {  .@.@.-.x D ] R ' P M F M U _ `  .N N M M M M m M P _ ` _ [ z O.&.+.[ ` U U I U T [ [ D 1.=.-.&.+.X.",
".. .X.$.-.;.i o . . @ % O & $ @ @ @ % e ~ #.O.#.o.o.o.o.o.O.:.:.k N J ! J Q N J K K Y F H * H F J H J H H F J J K H r O.,.-.*.X.",
"{ ] X.%.=.6.F # , < < y 2 2 < < < , 4 g >.2.2.<.,.<.,.*.<.2.2.3.H $.=.+.6.+.+.6.=.1.6.=.6.t 6.1.=.+.+.X.} +.%.=.;.1.z ;.6.=.%.} ",
"U U ] +.+.6.Y w c c d n b b m v d 9 0 j >.2.<.,.,.O.O.O.,.<.<.2.H $.&.X. .[  .X.+.-.4.6.1.t 6.;.=.{ ' _ ' ] [ +.=.;.z =.1.+.[ ] ",
"A S _ [ +.4.^ f A P I A U S A M m m b j O.>.O.,.O.O.^ O.O.$.<.2.H O.+.X._ P _ ' [ &.&.4.=.r ;.;.%.] U U S _ ] +.=.=.z =.&.} _ S ",
"b S _ ] +.=.^ g P P U S M S S M m M m n :.2.O...| | T ..$.,.2.2.V O.+. .P M _ S `  .&.;.6.r =.=.+.] U A m P _ } =.=.z =.%.+.' U ",
"Z I _ ] +.;.^ g U U _ _ M M S M M M M n O.2.*.O.O.O.X.O.*.>.2.2.N X.+.[ _ M M P _ +.%.;.1.r 1.&.} ] _ A S U ] } =.=.z =.=.+._ U ",
"U U ' } %.6.^ g U ` S _ S b M M M A A N >.2.,.,.O.O.O.O.,.,.1.2.Q +.X.[ P M M I _ X.&.6.4.r ;.&.+.[ ' S U _ ] +.=.;.z =.=.+._ U ",
"' ] } %.;.;./ N _ ] _ _ S S 0 M S M A n ,.2.2.,.,.O.,.,.,.<.2.3.H O.+. ._ U T P ] &.=.6.;.t 6.;.=.} ] _ ] ] +.%.;.1.z =.6.%.{ [ ",
"X.%.&.=.6.;.T j _ ] _ S S M b b M A A v :.3.2.<.<.,.,.,.<.1.2.2.x O.=.+.` [  .`  .&.=.4.1.r =.4.;.=.+.{ X.+.&.=.6.;.z =.4.=.=.%.",
">.$.,.<.<.2.o.H $...{ I I I I R T  .O.l * i e e i i i e i a y e w J +.+.] _ _ U U R ] }  .z E -.$.+.O. .{ W O.*.*.O.t ~ 0.3.<.,.",
"1.2.2.2.3.3.3.#.1.@...R I R I ] ..$.=.K , y y y y 2 6 6 y y y 7 f K X.[ ] _ U P A I U ' [ F $.;.4.%.+.X.+.{ +.=.;.6.x :.t.r.3.3.",
"<.<.,.,.<.2.3...@. .R A C Z Z I U O.*.J f S P S A v m m A A M S g F +.` U A A A m A P _ [ D O.1.&.+.[ ` U _ X.+.;.;.x :.r.3.3.3.",
",.,.,.<.,.$.$.^ O.' A Z 0 5 0 Z I ' O.H f U _ S A b b m A S _ _ n J X.[ T U Z m b U U _ [ n  .=.+.[ _ T A _ ] [ =.;.x :.2.3.3.2.",
">.,.-.,.,.O.$.(  .W L c 5 ; 5 9 Z U O.H g ` ` P A b c M M _ _ _ n F +.[ _ _ P U S S U _ [ D  .;.+.] U P Z S S [ +.4.z ) 3.2.2.,.",
">.O...O...$.*.( X.] A b 9 3 9 b I ' @.H g [ ] _ A S M b M M _ [ N J +.} ] _ I S U U _ ] [ H  .1.+.] U A Z U _ [ %.;.z ( 3.2.,.,.",
"..| | | O.,.$.( @.{ I Z c 0 v m U { *.H N X.[ [ _ S S A _ _ [  .F Y %.+.} ' ' _ _ _ ] [ } J ..;.%.[ ] A U _ ] +.=.4.x ( <.<.O...",
"O.| T ..O.*.*...*...R P A m A U T X.,.K M } } [ ' _ _ A [ } +.+.J a =.+.+.{ [ [ [ [ } } +.F O.;.=.+.[ U ] ] X.+.=.4.V ) 3.2.<.*.",
"O.| | O.O.,.*.:.<.+.X.` T I U ]  .-.2.Q N +.&.+. .[ [ ` X.+.&.+.I * H &.O.+. .[ [  .X.+.&.z $.=.;.,.X. .+.+.+.+.6.1.x o.2.2.<.,.",
"N N N L L l r Q :.o.o.^ ( | ^ ( o.o.H x H Y ^ T T Y T F T ` F z Q Q Q ( O.O.O.o.O.$.O.o.l l ~ O.| | ^ ^ ~ | ..^ x N y g F F L N ",
"b b M M A n K r.r.3.2.1.2.2.0.r.r.r.Q *.*.*.+. .X.X.X.+.+.&.o.l 3.r.0.3.1.,.,.0.0.0.r.t.z 3.0.1.<.,.6.6.0.0.0.q.l q v c 9 d c c ",
"m m M M S F >.t.0.2.1.,.,.<.<.0.3.r.Q &.+.+. .] ]  .X.+.O.*.X.l 3.0.0.2.<.$.,.,.<.0.r.r.z *.-.*.O.+.O.O.+.6.0.0.2.r v c c c c c ",
"b M M S P m ,.t.2.2.,.,.$.*.,.2.3.r.K *.+.X.X.{ ` [ [ X.+.O...k 2.r.2.<.,...$.>.<.2.0.0.l O.@. . .` ` | +.,.0.6.t.N b c b c c b ",
"M M P S _ F >.r.2.,.O.O...O.,.2.r.0.Q %.O.X. .[ U ` ]  .+.+.| k 2.3.2.<.*...| O.,.,.r.0.l ..W U U I Z U | O.+.0.0.N b M b c c c ",
"m M P _ ` Y >.r.<.o...| ~ O.$.<.3.r.Q O.+. .[ [ P ` [  .X.+.| k >.3.,.$...| | O.,.<.r.0.l T U A b b v L ` X.O.6.q.N M M b M b b ",
"P P _ ] [ T >.2.<.<.*.O. .O.,.,.2.r.K *.+.X. .` ] T [  .O.+...l 3.3.2.,.,.O.O.>.<.<.0.0.l T S b 0 9 9 m M | +.<.q.Q _ M M M M M ",
"U ] [ }  .N <.r.3.2.<.*.$.>.<.2.0.r.Q +.X.X. . . .'  .X.+.+...k 2.0.0.,.,.,.,.<.<.3.r.0.z I S c 9 3 9 0 A R $.-.q.K _ P S M S S ",
"` [ +.+. .r >.t.r.3.2.1.<.,.2.r.0.r.! *.+.*.X.X.X.] X.*.+.+.O.l 3.0.0.0.1.,.<.1.3.r.0.t.z U Z d 4 5 5 Z L W *.,.q.Q _ ] _ _ _ _ ",
"` ] [ } W r K o.o.O.) ) / / o.o.O.o.k ^ / ]  . . .W ] ] |  .Y w ~ :.o.o.o.o.o.o.o.#.#.) a D N m Z C Z A T ] O.<.0.H x N ' ` _ ` ",
"] [ [ +.+./ + o + @ @ @ @ @ @ @ @ # q * w m m m m v v c 7 y 7 7 @ O # # # # # # % % % % d s Q r.3.3.1.1.<.<.<.<.,.<.( Y +.+.[ ] ",
"` ] [  .+.+.f $ , , , : : : % : , , d y e M S M m b b v 7 7 c 7 < q d 7 d 7 6 y s 6 c v M g ~ r.3.3.1.2.<.>.*.<.$.2.o.] X.[ [ ] ",
"_ _ ` ] [ +.| q d d s 6 2 3 , 6 2 d c g y S _ M A M v c 9 c c 0 d d m m v v 9 c c b m L P g ! r.3.<.1.,.*.$.O.o.<.<.( T ] ] _ _ ",
"P P _ _ [  .X.r b v 9 7 7 3 3 7 7 c v c t P _ _ A S M M c b v v d g M M v v c c c m A U _ N Q 2.1.<.$.$.$.O.^ O.,.<.^ Y ] _ _ S ",
"L P P _ [ [  .w m v d 7 > > > 7 d c m m a _ _ S S A A M b v b v d n L L M b c 0 b A S _ ` N ! 0.1.<.,.....W ..O.,.<.^ U ] U U S ",
"m C S U ] [ [ r m v v 9 3 = ; 5 9 v Z C f ] _ _ _ S A A S b m b c N _ U P M M M A P _ [ [ M ! 0.2.<.*.O.O.T O.X.,.,.^ I ` _ P A ",
"A A A S _ ] X.r A Z 0 9 3 3 3 5 0 b A C g [ _ _ _ _ S S S A b Z v N ` ` _ P P _ P _ ] } +.J ! 0.2.<.,.#.^ O.| $.*.<.o.Y ] I A A ",
"S L T _ ] [ X.t I S m 9 9 5 0 0 b Z P F g [ [ _ _ _ U _ P _ A A m M  .[  .[ _ _ U  .+.%.+.J ~ 0.3.1.<.O.*.$.O.$.<.<.o.U ` U U A ",
"I I R ]  . .J x W T I F C m Z S I W n D J  .X.' _ S R ] ] ] R n a J  .O. .` ` ` U ` [ { | N z ~ K K D D D D D H J H z Y  .T T I ",
" .{ &.1.;.6.*.=.;.=.&.+.} } =.=.;.5.^ $.e.5.4.4.=.4.&.5.e.e.e./ K 6.6.6.+.[ _ _ U L A [ W %.A g s s 8 2 , < s s s h ] 4.1.%.+.+.",
"U { +.=.;.;.*.6.=.%.} [ ] ' } %.=.5.^ @.5.4.-.%.%.%.@.;.5.e.e...J 6.;.6.+.X._ P Z Z U [ ] &.{ ' U I A C v Z A I U Y =.1.+.} [ ] ",
"A U [ X.;.;.$.;.-.[ U U S U ] +.-.-.W / 4.-.@.{ { R } %.;.5.w...J 6.6.6.+.[ _ S A U U [ W %.} [ ' R P Z P A U U _ W 4.&.} [ _ _ ",
"Z S U [ =.;.@.=.+.[ U A A P _ [ @.4.E W @.} { R R L { } -.1.w...J 6.=.6.&.[ ` A P U ] { W @.} } ] R A P U A U _ { Y ;.%.} _ U S "
};
