/* XPM */
static char *a1166a883c0f4ebde30d97eea2d2d851UvYgEztTXHjaDlhz[] = {
/* columns rows colors chars-per-pixel */
"32 32 2 1 ",
"  c None",
". c black",
/* pixels */
"                        ..      ",
"                      .....     ",
"                    .......     ",
"                   ........     ",
"                 ..........     ",
"                ...........     ",
"              .............     ",
"             ..............     ",
"           ................     ",
"          .................     ",
"        ...................     ",
"       ....................     ",
"      .....................     ",
"    .......................     ",
"   ........................     ",
"   ........................     ",
"   ........................     ",
"   ........................     ",
"    .......................     ",
"      .....................     ",
"       ....................     ",
"        ...................     ",
"          .................     ",
"           ................     ",
"             ..............     ",
"              .............     ",
"                ...........     ",
"                 ..........     ",
"                   ........     ",
"                    .......     ",
"                      .....     ",
"                        ..      "
};
