/* XPM */
static char *_498cc8d08094a2dfa32dc275c47ff85RxaaWFBoi8vsYBqH[] = {
/* columns rows colors chars-per-pixel */
"32 32 2 1 ",
"  c None",
". c black",
/* pixels */
"     ..                         ",
"    .....                       ",
"    .......                     ",
"    ........                    ",
"    ..........                  ",
"    ...........                 ",
"    .............               ",
"    ..............              ",
"    ................            ",
"    .................           ",
"    ...................         ",
"    ....................        ",
"    .....................       ",
"    .......................     ",
"    ........................    ",
"    ........................    ",
"    ........................    ",
"    ........................    ",
"    .......................     ",
"    .....................       ",
"    ....................        ",
"    ...................         ",
"    .................           ",
"    ................            ",
"    ..............              ",
"    .............               ",
"    ...........                 ",
"    ..........                  ",
"    ........                    ",
"    .......                     ",
"    .....                       ",
"     ..                         "
};
