/* XPM */
static char *__tGqVI[] = {
/* columns rows colors chars-per-pixel */
"64 64 55 1 ",
"  c black",
". c #047604760476",
"X c #096809680968",
"o c #0E080E080E08",
"O c #12B012B012B0",
"+ c #14B514B514B5",
"@ c #183318331833",
"# c #234323432343",
"$ c #266726672667",
"% c #2F0F2F0F2F0F",
"& c #311831183118",
"* c #362A362A362A",
"= c #394539453945",
"- c #423542354235",
"; c #440044004400",
": c #4A474A474A47",
"> c #4D664D664D66",
", c #50BE50BE50BE",
"< c #549854985498",
"1 c #5D375D375D37",
"2 c #65BD65BD65BD",
"3 c #688A688A688A",
"4 c #6B446B446B44",
"5 c #7A667A667A66",
"6 c #7CAE7CAE7CAE",
"7 c #805D805D805D",
"8 c #868186818681",
"9 c #88E088E088E0",
"0 c #8CA98CA98CA9",
"q c #964D964D964D",
"w c #987C987C987C",
"e c #9B9D9B9D9B9D",
"r c #A38FA38FA38F",
"t c #A67BA67BA67B",
"y c #A907A907A907",
"u c #AEF6AEF6AEF6",
"i c #B332B332B332",
"p c #B59CB59CB59C",
"a c #BBB9BBB9BBB9",
"s c #BD68BD68BD68",
"d c #C098C098C098",
"f c #C548C548C548",
"g c #CBEECBEECBEE",
"h c #CDD6CDD6CDD6",
"j c #D4A0D4A0D4A0",
"k c #D920D920D920",
"l c #DF44DF44DF44",
"z c #E22AE22AE22A",
"x c #E46CE46CE46C",
"c c #ED22ED22ED22",
"v c #EE98EE98EE98",
"b c #F2AEF2AEF2AE",
"n c #F537F537F537",
"m c #FB94FB94FB94",
"M c #FFFEFFFEFFFE",
/* pixels */
"MMMMMMMMMMMMMMMMMMMMMMMMMMMMMMMMMMMMMMMMMMMMMMMMMMMMMMMMMMMMMMMM",
"MMMMMMMMMMMMMMMMMMMMMMMMMMMMMMMMMMMMMMMMMMMMMMMMMMMMMMMMMMMMMMMM",
"MMMMMMMMMMMMMMMMMMMMMMMMMMMMMMMMMMMMMMMMMMMMMMMMMMMMMMMMMMMMMMMM",
"MMMMMMMMMMMMMMMMMMMMMMMMMMMMMMMMMMMMMMMMMMMMMMMMMMMMMMMMMMMMMMMM",
"MMMMMMMMMMMMMMMMMMMMMMMMMMMMMMMMMMMMMMMMMMMMMMMMMMMMMMMMMMMMMMMM",
"MMMMMMMMMMMMMMMMMMMMMMMMMMMMMMMMMMMMMMMMMMMMMMMMMMMMMMMMMMMMMMMM",
"MMMMMMMMMMMMMMMMMMMMMMMMMMMMMMMMMMMMMMMMMMMMMMMMMMMMMMMMMMMMMMMM",
"MMMMMMMMMMMMMMMMMMMMMMMMMMxi6,#O O#,6izMMMMMMMMMMMMMMMMMMMMMMMMM",
"MMMMMMMMMMMMMMMMMMMMMMMp>               >pMMMMMMMMMMMMMMMMMMMMMM",
"MMMMMMMMMMMMMMMMMMMMl2                     2lMMMMMMMMMMMMMMMMMMM",
"MMMMMMMMMMMMMMMMMMz<                         <zMMMMMMMMMMMMMMMMM",
"MMMMMMMMMMMMMMMMm8                             8mMMMMMMMMMMMMMMM",
"MMMMMMMMMMMMMMMko         2pMMMMMMMMMp2         XkMMMMMMMMMMMMMM",
"MMMMMMMMMMMMMMu        2jMMMMMMMMMMMMMMMj2        uMMMMMMMMMMMMM",
"MMMMMMMMMMMMM0       6vMMMmjr3*mMn*3rjmMMMv6       0MMMMMMMMMMMM",
"MMMMMMMMMMMM6      -xMMMh2     zMz     1hMMMx-      6MMMMMMMMMMM",
"MMMMMMMMMMM0      wMMMs@       sMs       +aMMMr      0MMMMMMMMMM",
"MMMMMMMMMMu      hMMz*         0M0         &lMMh      uMMMMMMMMM",
"MMMMMMMMMj      lMMu           >M>           yMMl      jMMMMMMMM",
"MMMMMMMMmo     lMMw                           hMMl     omMMMMMMM",
"MMMMMMMM8     hMMMno                         6MMMMg     8MMMMMMM",
"MMMMMMMz     rMMvMMk                        @mMMhMMr     zMMMMMM",
"MMMMMMM<    -MMy pMMw                       kMm6 yMM-    <MMMMMM",
"MMMMMMl     zMl   3nM-                     rMl@   zMx     lMMMMM",
"MMMMMM2    6MM&     i                       r     &MM6    2MMMMM",
"MMMMMn     vMa                                     aMv     nMMMM",
"MMMMMp    3MMO                                     +MM2    pMMMM",
"MMMMM>    jMg     X                                 hMj    >MMMM",
"MMMMm     MM1     li%                               1MM     mMMM",
"MMMMl    2Mm     &MMMk;                              mM2    lMMM",
"MMMMi    pMj     pMMMMMM1X                           jMp    iMMM",
"MMMM6    lMr    oMMMMMMMMM5+                         rMl    6MMM",
"MMMM,    nM3     .:vMMMMMMMMw#*33=                   3Mn    ,MMM",
"MMMM#    MM*        *dMMMMMMMMMMMMq                  *MM    #MMM",
"MMMMO    MMnzs0>      #wMMMMMMMMMMM<             >0sznMM    OMMM",
"MMMM     MMMMMMM        +5MMMMMMMMMh             MMMMMMM     MMM",
"MMMMo    MMnzs0>          X1MMMMMMMM             >0szmMM    oMMM",
"MMMM$    MM*                uMMMMMMu                 *MM    $MMM",
"MMMM>    nM2                #MMMMMM#                 2Mn    :MMM",
"MMMM6    lMr                 *MMMM*                  rMl    6MMM",
"MMMMi    pMj                   ++                    jMp    iMMM",
"MMMMl    3Mm                                         mM3    lMMM",
"MMMMm     MM2                                       2MM     mMMM",
"MMMMM:    jMg                                       gMj    :MMMM",
"MMMMMp    3MM+                                     +MM3    pMMMM",
"MMMMMn     vMs                                     sMv     nMMMM",
"MMMMMM3    7MM=                                   =MM7    3MMMMM",
"MMMMMMl     zMz       +%-<259wtidgjlxvbnmMM       zMx     kMMMMM",
"MMMMMMM,    ;MMy      MMMMMMMMMMMMMMMMMMMMM      uMM;    ,MMMMMM",
"MMMMMMMz     rMM6                               6MMw     zMMMMMM",
"MMMMMMMM8     f1                                 1f     8MMMMMMM",
"MMMMMMMMmo                                             omMMMMMMM",
"MMMMMMMMMk                                             kMMMMMMMM",
"MMMMMMMMMMu                                           uMMMMMMMMM",
"MMMMMMMMMMM0                                         0MMMMMMMMMM",
"MMMMMMMMMMMM5                                      &dMMMMMMMMMMM",
"MMMMMMMMMMMMMMMMMMMMMMMMMMMMMMMMMMMMMMMMMMMMMMMMMMMMMMMMMMMMMMMM",
"MMMMMMMMMMMMMMMMMMMMMMMMMMMMMMMMMMMMMMMMMMMMMMMMMMMMMMMMMMMMMMMM",
"MMMMMMMMMMMMMMMMMMMMMMMMMMMMMMMMMMMMMMMMMMMMMMMMMMMMMMMMMMMMMMMM",
"MMMMMMMMMMMMMMMMMMMMMMMMMMMMMMMMMMMMMMMMMMMMMMMMMMMMMMMMMMMMMMMM",
"MMMMMMMMMMMMMMMMMMMMMMMMMMMMMMMMMMMMMMMMMMMMMMMMMMMMMMMMMMMMMMMM",
"MMMMMMMMMMMMMMMMMMMMMMMMMMMMMMMMMMMMMMMMMMMMMMMMMMMMMMMMMMMMMMMM",
"MMMMMMMMMMMMMMMMMMMMMMMMMMMMMMMMMMMMMMMMMMMMMMMMMMMMMMMMMMMMMMMM",
"MMMMMMMMMMMMMMMMMMMMMMMMMMMMMMMMMMMMMMMMMMMMMMMMMMMMMMMMMMMMMMMM"
};
