/* XPM */
static char *__QbDjI[] = {
/* columns rows colors chars-per-pixel */
"64 64 54 1 ",
"  c black",
". c #0C3D0C3D0C3D",
"X c #106410641064",
"o c #14B514B514B5",
"O c #183318331833",
"+ c #234D234D234D",
"@ c #266726672667",
"# c #2CCF2CCF2CCF",
"$ c #33E733E733E7",
"% c #362A362A362A",
"& c #394539453945",
"* c #410E410E410E",
"= c #43ED43ED43ED",
"- c #4A474A474A47",
"; c #4D664D664D66",
": c #50BE50BE50BE",
"> c #549854985498",
", c #5D275D275D27",
"< c #65B165B165B1",
"1 c #6B446B446B44",
"2 c #779677967796",
"3 c #78A478A478A4",
"4 c #7CBE7CBE7CBE",
"5 c #805980598059",
"6 c #868186818681",
"7 c #899A899A899A",
"8 c #8CB38CB38CB3",
"9 c #964D964D964D",
"0 c #987C987C987C",
"q c #9A929A929A92",
"w c #A2F8A2F8A2F8",
"e c #A67BA67BA67B",
"r c #AA13AA13AA13",
"t c #AEF6AEF6AEF6",
"y c #B332B332B332",
"u c #B59CB59CB59C",
"i c #BBCABBCABBCA",
"p c #BD68BD68BD68",
"a c #C0C2C0C2C0C2",
"s c #C548C548C548",
"d c #CAF9CAF9CAF9",
"f c #CEF7CEF7CEF7",
"g c #D3EED3EED3EE",
"h c #D4A0D4A0D4A0",
"j c #D920D920D920",
"k c #DF44DF44DF44",
"l c #E22AE22AE22A",
"z c #E46BE46BE46B",
"x c #ED22ED22ED22",
"c c #EE03EE03EE03",
"v c #F268F268F268",
"b c #F537F537F537",
"n c #FB94FB94FB94",
"m c #FFFEFFFEFFFE",
/* pixels */
"mmmmmmmmmmmmmmmmmmmmmmmmmmmmmmmmmmmmmmmmmmmmmmmmmmmmmmmmmmmmmmmm",
"mmmmmmmmmmmmmmmmmmmmmmmmmmmmmmmmmmmmmmmmmmmmmmmmmmmmmmmmmmmmmmmm",
"mmmmmmmmmmmmmmmmmmmmmmmmmmmmmmmmmmmmmmmmmmmmmmmmmmmmmmmmmmmmmmmm",
"mmmmmmmmmmmmmmmmmmmmmmmmmmmmmmmmmmmmmmmmmmmmmmmmmmmmmmmmmmmmmmmm",
"mmmmmmmmmmmmmmmmmmmmmmmmmmmmmmmmmmmmmmmmmmmmmmmmmmmmmmmmmmmmmmmm",
"mmmmmmmmmmmmmmmmmmmmmmmmmmmmmmmmmmmmmmmmmmmmmmmmmmmmmmmmmmmmmmmm",
"mmmmmmmmmmmmmmmmmmmmmmmmmmmmmmmmmmmmmmmmmmmmmmmmmmmmmmmmmmmmmmmm",
"mmmmmmmmmmmmmmmmmmmmmmmmmmzy4:+X X+:4yzmmmmmmmmmmmmmmmmmmmmmmmmm",
"mmmmmmmmmmmmmmmmmmmmmmmu;               ;ummmmmmmmmmmmmmmmmmmmmm",
"mmmmmmmmmmmmmmmmmmmmk<                     <kmmmmmmmmmmmmmmmmmmm",
"mmmmmmmmmmmmmmmmmml>                         >lmmmmmmmmmmmmmmmmm",
"mmmmmmmmmmmmmmmmn6                             6nmmmmmmmmmmmmmmm",
"mmmmmmmmmmmmmmmj.         <ummmmmmmmmu<         .jmmmmmmmmmmmmmm",
"mmmmmmmmmmmmmmt        <hmmmmmmmmmmmmmmmg1        tmmmmmmmmmmmmm",
"mmmmmmmmmmmmm8       4cmmmnhw1%nmb%1whnmmmc4       8mmmmmmmmmmmm",
"mmmmmmmmmmmmm.     *zmmmf<     lml     ,dmmmz*      4mmmmmmmmmmm",
"mmmmmmmmmmmmm;    0mmmpO       pmp       oimmmw      8mmmmmmmmmm",
"mmmmmmmmmmmmmf   fmml%         8m8         %kmmf      tmmmmmmmmm",
"mmmmmmmmmlmmmmo kmmt           ;m;           rmmk      jmmmmmmmm",
"mmmmmmmmn.mmmm<kmm0                           fmmk     .nmmmmmmm",
"mmmmmmmm6 5mmmmmmmn.                         4mmmmf     6mmmmmmm",
"mmmmmmml  +mmmmmcmmh                        Onmmfmm0     lmmmmmm",
"mmmmmmm>   vmmmg umm0                       jmn4 rmm*    >mmmmmm",
"mmmmmmk    <mmmm  1bm*                     wmkO   lmz     kmmmmm",
"mmmmmm<    7mmmm%   y                       w     %mm4    <mmmmm",
"mmmmmb     cmmmm9                                  imc     bmmmm",
"mmmmmu    <mmmm2+                                  omm<    ummmm",
"mmmmm;    hmf#                                      fmh    ;mmmm",
"mmmmn     mm,                                       ,mm     nmmm",
"mmmmk    <mn                                         mm<    kmmm",
"mmmmy    umh                                         hmu    ymmm",
"mmmm4    lmw                                         wmk    4mmm",
"mmmm:    bm1                  %11&                   1mb    :mmm",
"mmmm+    mm%                 9mmmm9                  %mm    +mmm",
"mmmmX    mmblp8;            >mmmmmm>             ;8plbmm    Xmmm",
"mmmm     mmmmmmm            fmmmmmmf             mmmmmmm     mmm",
"mmmm.    mmblp8;            mmmmmmmm             ;8plnmm    .mmm",
"mmmm@    mm%                tmmmmmmt                 %mm    @mmm",
"mmmm;    bm<                +mmmmmm+                 <mb    ;mmm",
"mmmm4    kmw                 %mmmm%                  wmk    4mmm",
"mmmmy    umh                   oo                    hmy    ymmm",
"mmmmk    1mn                                         nm1    kmmm",
"mmmmn     mm,                                       ,mm     nmmm",
"mmmmm-    hmf                                       fmh    -mmmm",
"mmmmmu    1mmo                                     omm1    ummmm",
"mmmmmb     cmp                                     pmc     vmmmm",
"mmmmmm1    5mm&                                   &mm5    1mmmmm",
"mmmmmmk     lml       o#*><370eyadhkzcvbmmm       lmz     jmmmmm",
"mmmmmmm:    =mmr      mmmmmmmmmmmmmmmmmmmmm      tmm=    >mmmmmm",
"mmmmmmml     wmm4                               4mm0     lmmmmmm",
"mmmmmmmm6     s,                                 ,s     6mmmmmmm",
"mmmmmmmmn.                                             .nmmmmmmm",
"mmmmmmmmmj                                             jmmmmmmmm",
"mmmmmmmmmmt                                           tmmmmmmmmm",
"mmmmmmmmmmm8                                         8mmmmmmmmmm",
"mmmmmmmmmmmm3                                      %ammmmmmmmmmm",
"mmmmmmmmmmmmmmmmmmmmmmmmmmmmmmmmmmmmmmmmmmmmmmmmmmmmmmmmmmmmmmmm",
"mmmmmmmmmmmmmmmmmmmmmmmmmmmmmmmmmmmmmmmmmmmmmmmmmmmmmmmmmmmmmmmm",
"mmmmmmmmmmmmmmmmmmmmmmmmmmmmmmmmmmmmmmmmmmmmmmmmmmmmmmmmmmmmmmmm",
"mmmmmmmmmmmmmmmmmmmmmmmmmmmmmmmmmmmmmmmmmmmmmmmmmmmmmmmmmmmmmmmm",
"mmmmmmmmmmmmmmmmmmmmmmmmmmmmmmmmmmmmmmmmmmmmmmmmmmmmmmmmmmmmmmmm",
"mmmmmmmmmmmmmmmmmmmmmmmmmmmmmmmmmmmmmmmmmmmmmmmmmmmmmmmmmmmmmmmm",
"mmmmmmmmmmmmmmmmmmmmmmmmmmmmmmmmmmmmmmmmmmmmmmmmmmmmmmmmmmmmmmmm",
"mmmmmmmmmmmmmmmmmmmmmmmmmmmmmmmmmmmmmmmmmmmmmmmmmmmmmmmmmmmmmmmm"
};
