/* XPM */
static char *__QDS56[] = {
/* columns rows colors chars-per-pixel */
"64 64 56 1 ",
"  c black",
". c #073D073D073D",
"X c #083D083D083D",
"o c #0F270F270F27",
"O c #106410641064",
"+ c #16B816B816B8",
"@ c #180E180E180E",
"# c #220F220F220F",
"$ c #266726672667",
"% c #2C632C632C63",
"& c #2FF02FF02FF0",
"* c #362A362A362A",
"= c #394639463946",
"- c #3F243F243F24",
"; c #410E410E410E",
": c #43ED43ED43ED",
"> c #4A1F4A1F4A1F",
", c #4D664D664D66",
"< c #50BE50BE50BE",
"1 c #549854985498",
"2 c #590159015901",
"3 c #5C6D5C6D5C6D",
"4 c #65BD65BD65BD",
"5 c #6B446B446B44",
"6 c #712171217121",
"7 c #78BB78BB78BB",
"8 c #7CAE7CAE7CAE",
"9 c #805D805D805D",
"0 c #868186818681",
"q c #88E088E088E0",
"w c #8CA98CA98CA9",
"e c #964D964D964D",
"r c #987C987C987C",
"t c #9A929A929A92",
"y c #A38FA38FA38F",
"u c #AA13AA13AA13",
"i c #AEF6AEF6AEF6",
"p c #B311B311B311",
"a c #B59CB59CB59C",
"s c #BBCABBCABBCA",
"d c #BFDBBFDBBFDB",
"f c #C0C2C0C2C0C2",
"g c #C548C548C548",
"h c #CAF9CAF9CAF9",
"j c #CEF7CEF7CEF7",
"k c #D6FAD6FAD6FA",
"l c #D920D920D920",
"z c #DF4BDF4BDF4B",
"x c #E22AE22AE22A",
"c c #E680E680E680",
"v c #EB27EB27EB27",
"b c #ECDAECDAECDA",
"n c #F2AEF2AEF2AE",
"m c #F537F537F537",
"M c #FB94FB94FB94",
"N c white",
/* pixels */
"NNNNNNNNNNNNNNNNNNNNNNNNNNNNNNNNNNNNNNNNNNNNNNNNNNNNNNNNNNNNNNNN",
"NNNNNNNNNNNNNNNNNNNNNNNNNNNNNNNNNNNNNNNNNNNNNNNNNNNNNNNNNNNNNNNN",
"NNNNNNNNNNNNNNNNNNNNNNNNNNNNNNNNNNNNNNNNNNNNNNNNNNNNNNNNNNNNNNNN",
"NNNNNNNNNNNNNNNNNNNNNNNNNNNNNNNNNNNNNNNNNNNNNNNNNNNNNNNNNNNNNNNN",
"NNNNNNNNNNNNNNNNNNNNNNNNNNNNNNNNNNNNNNNNNNNNNNNNNNNNNNNNNNNNNNNN",
"NNNNNNNNNNNNNNNNNNNNNNNNNNNNNNNNNNNNNNNNNNNNNNNNNNNNNNNNNNNNNNNN",
"NNNNNNNNNNNNNNNNNNNNNNNNNNNNNNNNNNNNNNNNNNNNNNNNNNNNNNNNNNNNNNNN",
"NNNNNNNNNNNNNNNNNNNNNNNNNNxa8<#O O#<8pcNNNNNNNNNNNNNNNNNNNNNNNNN",
"NNNNNNNNNNNNNNNNNNNNNNNa,               ,aNNNNNNNNNNNNNNNNNNNNNN",
"NNNNNNNNNNNNNNNNNNNNz4                     4zNNNNNNNNNNNNNNNNNNN",
"NNNNNNNNNNNNNNNNNNx1                         1xNNNNNNNNNNNNNNNNN",
"NNNNNNNNNNNNNNNNM0                             0MNNNNNNNNNNNNNNN",
"NNNNNNNNNNNNNNNlo         4aNNNNNNNNNa4         XlNNNNNNNNNNNNNN",
"NNNNNNNNNNNNNNi        5kNNNNNNNNNNNNNNNk4        iNNNNNNNNNNNNN",
"NNNNNNNNNNNNNw       8bNNNMky5*mNm*5ykMNNNb8       wNNNNNNNNNNNN",
"NNNNNNNNNNNN8      ;cNNNj3     xNx     3jNNNc;      8NNNNNNNNNNN",
"NNNNNNNNNNNw #N2. rNNNd+       dNd       +sNNNy      wNNNNNNNNNN",
"NNNNNNNNNNi  yNNNxNNx*         wNw         &zNNj      iNNNNNNNNN",
"NNNNNNNNNl  @NNNNNNi           ,N,           uNNz      kNNNNNNNN",
"NNNNNNNNmo  0NNNNNr                           jNNz     OMNNNNNNN",
"NNNNNNNN0  oNNNNNNMo                         8NNNNj     0NNNNNNN",
"NNNNNNNx   6NNNNbNNk                        @MNNjNNr     xNNNNNN",
"NNNNNNN1  XNNNNk aNNr                       lNM8 uNN;    1NNNNNN",
"NNNNNNz   3NNNN@  5mN;                     yNz@   xNc     zNNNNN",
"NNNNNN4   NNNNp     p                       y     &NN8    4NNNNN",
"NNNNNm   >NNNN#                                    sNb     mNNNN",
"NNNNNa   vNNNd                                     +NN4    aNNNN",
"NNNNN,  =NNNN&                                      jNk    ,NNNN",
"NNNNM   yNNNc                                       3NN     MNNN",
"NNNNz    7NN-                                        MN4    zNNN",
"NNNNp    aNl                                         kNa    pNNN",
"NNNN8    zNy                                         yNz    8NNN",
"NNNN<    mN5                  *55=                   5Nm    <NNN",
"NNNN#    NN*                 eNNNNe                  *NN    #NNN",
"NNNNO    NNmxdw,            1NNNNNN1             ,wdxmNN    ONNN",
"NNNN     NNNNNNN            jNNNNNNj             NNNNNNN     NNN",
"NNNNo    NNmxdw,            NNNNNNNN             ,wdxmNN    oNNN",
"NNNN$    NN*                iNNNNNNi                 *NN    $NNN",
"NNNN,    mN4                #NNNNNN#                 4Nm    >NNN",
"NNNN8    zNy                 *NNNN*                  yNz    8NNN",
"NNNNp    aNk                   ++                    kNa    pNNN",
"NNNNz    5NM                                         MN4    zNNN",
"NNNNM     NN3                                       3NN     MNNN",
"NNNNN>    kNj                                       jNk    >NNNN",
"NNNNNa    5NN+                                     +NN5    aNNNN",
"NNNNNm     bNd                                     dNb     mNNNN",
"NNNNNN5    9NN=                                   =NN9    5NNNNN",
"NNNNNNz     xNx       +%;157qrypfhkzcbnmMNN       xNx     lNNNNN",
"NNNNNNN<    :NNu      NNNNNNNNNNNNNNNNNNNNN      iNN:    <NNNNNN",
"NNNNNNNx     yNN8                               8NNr     xNNNNNN",
"NNNNNNNN0     g3                                 3g     0NNNNNNN",
"NNNNNNNNMo                                             oMNNNNNNN",
"NNNNNNNNNl                                             lNNNNNNNN",
"NNNNNNNNNNi                                           iNNNNNNNNN",
"NNNNNNNNNNNw                                         wNNNNNNNNNN",
"NNNNNNNNNNNN7                                      &fNNNNNNNNNNN",
"NNNNNNNNNNNNNNNNNNNNNNNNNNNNNNNNNNNNNNNNNNNNNNNNNNNNNNNNNNNNNNNN",
"NNNNNNNNNNNNNNNNNNNNNNNNNNNNNNNNNNNNNNNNNNNNNNNNNNNNNNNNNNNNNNNN",
"NNNNNNNNNNNNNNNNNNNNNNNNNNNNNNNNNNNNNNNNNNNNNNNNNNNNNNNNNNNNNNNN",
"NNNNNNNNNNNNNNNNNNNNNNNNNNNNNNNNNNNNNNNNNNNNNNNNNNNNNNNNNNNNNNNN",
"NNNNNNNNNNNNNNNNNNNNNNNNNNNNNNNNNNNNNNNNNNNNNNNNNNNNNNNNNNNNNNNN",
"NNNNNNNNNNNNNNNNNNNNNNNNNNNNNNNNNNNNNNNNNNNNNNNNNNNNNNNNNNNNNNNN",
"NNNNNNNNNNNNNNNNNNNNNNNNNNNNNNNNNNNNNNNNNNNNNNNNNNNNNNNNNNNNNNNN",
"NNNNNNNNNNNNNNNNNNNNNNNNNNNNNNNNNNNNNNNNNNNNNNNNNNNNNNNNNNNNNNNN"
};
