/* XPM */
static char *__UfFuO[] = {
/* columns rows colors chars-per-pixel */
"64 64 56 1 ",
"  c black",
". c #06E006E006E0",
"X c #0C400C400C40",
"o c #10B710B710B7",
"O c #16B816B816B8",
"+ c #183318331833",
"@ c #1EDA1EDA1EDA",
"# c #235E235E235E",
"$ c #266726672667",
"% c #287628762876",
"& c #2C632C632C63",
"* c #310331033103",
"= c #362A362A362A",
"- c #394539453945",
"; c #3D433D433D43",
": c #410E410E410E",
"> c #43ED43ED43ED",
", c #4A474A474A47",
"< c #4D654D654D65",
"1 c #50BE50BE50BE",
"2 c #547D547D547D",
"3 c #5D275D275D27",
"4 c #65BD65BD65BD",
"5 c #6B446B446B44",
"6 c #717371737173",
"7 c #7CAE7CAE7CAE",
"8 c #805D805D805D",
"9 c #868186818681",
"0 c #88E088E088E0",
"q c #8CA98CA98CA9",
"w c #92D492D492D4",
"e c #964D964D964D",
"r c #987C987C987C",
"t c #9A929A929A92",
"y c #A167A167A167",
"u c #A43EA43EA43E",
"i c #ACEFACEFACEF",
"p c #AEF6AEF6AEF6",
"a c #B332B332B332",
"s c #B784B784B784",
"d c #BBCABBCABBCA",
"f c #BD68BD68BD68",
"g c #C0C2C0C2C0C2",
"h c #C548C548C548",
"j c #CBF9CBF9CBF9",
"k c #CFBDCFBDCFBD",
"l c #D6CBD6CBD6CB",
"z c #D920D920D920",
"x c #DF44DF44DF44",
"c c #E22AE22AE22A",
"v c #E5F7E5F7E5F7",
"b c #ECDAECDAECDA",
"n c #F2AEF2AEF2AE",
"m c #F5D8F5D8F5D8",
"M c #FB94FB94FB94",
"N c #FFFEFFFEFFFE",
/* pixels */
"NNNNNNNNNNNNNNNNNNNNNNNNNNNNNNNNNNNNNNNNNNNNNNNNNNNNNNNNNNNNNNNN",
"NNNNNNNNNNNNNNNNNNNNNNNNNNNNNNNNNNNNNNNNNNNNNNNNNNNNNNNNNNNNNNNN",
"NNNNNNNNNNNNNNNNNNNNNNNNNNNNNNNNNNNNNNNNNNNNNNNNNNNNNNNNNNNNNNNN",
"NNNNNNNNNNNNNNNNNNNNNNNNNNNNNNNNNNNNNNNNNNNNNNNNNNNNNNNNNNNNNNNN",
"NNNNNNNNNNNNNNNNNNNNNNNNNNNNNNNNNNNNNNNNNNNNNNNNNNNNNNNNNNNNNNNN",
"NNNNNNNNNNNNNNNNNNNNNNNNNNNNNNNNNNNNNNNNNNNNNNNNNNNNNNNNNNNNNNNN",
"NNNNNNNNNNNNNNNNNNNNNNNNNNNNNNNNNNNNNNNNNNNNNNNNNNNNNNNNNNNNNNNN",
"NNNNNNNNNNNNNNNNNNNNNNNNNNca71#o o#17avNNNNNNNNNNNNNNNNNNNNNNNNN",
"NNNNNNNNNNNNNNNNNNNNNNNs<               <sNNNNNNNNNNNNNNNNNNNNNN",
"NNNNNNNNNNNNNNNNNNNNx4                     4xNNNNNNNNNNNNNNNNNNN",
"NNNNNNNNNNNNNNNNNNc2                         2cNNNNNNNNNNNNNNNNN",
"NNNNNNNNNNNNNNNNM9                             9MNNNNNNNNNNNNNNN",
"NNNNNNNNNNNNNNNzX         4sNNNNNNNNNs4         XzNNNNNNNNNNNNNN",
"NNNNNNNNNNNNNNp        4lNNNNNNNNNNNNNNNl4        pNNNNNNNNNNNNN",
"NNNNNNNNNNNNNq       7bNNNMly5=MNm=5ylMNNNb7       qNNNNNNNNNNNN",
"NNNNNNNNNNNN7      :vNNNk3     cNc     3kNNNv:      7NNNNNNNNNNN",
"NNNNNNNNNNNq      tNNNf+       fNf       OdNNNt      qNNNNNNNNNN",
"NNNNNNNNNNp      kNNc=         qNq         *cNNk      pNNNNNNNNN",
"NNNNNNNNNz      xNNp           <N<           pNNx      zNNNNNNNN",
"NNNNNNNNMX     xNNt                           kNNx     XMNNNNNNN",
"NNNNNNNN0     kNNNMX                         7NNNNk     9NNNNNNN",
"NNNNNNNc     tNNNNNl                        +MNNkNNt     cNNNNNN",
"NNNNNNN2    2NNNNNNNt                       xNM7 pNN:    2NNNNNN",
"NNNNNNx   %uNNNNNNwmN:                     yNx+   xNv     xNNNNN",
"NNNNNN4 ;kNNNNNNNNi a                       y     *NN7    4NNNNN",
"NNNNNm2MNNNNNNNNw@                                 dNb     mNNNN",
"NNNNNNNNNNNNNN6o                                   ONN4    sNNNN",
"NNNNNNNNNNNNx.                                      kNl    <NNNN",
"NNNNMsNNNjNN3                                       3NN     MNNN",
"NNNNx*Nu%4NM                                         MN4    xNNN",
"NNNNa O  sNl                                         lNs    aNNN",
"NNNN7    xNy                                         yNx    7NNN",
"NNNN1    mN5                  =55-                   5Nm    1NNN",
"NNNN#    NN=                 eNNNNe                  =NN    #NNN",
"NNNNo    NNmcfq<            2NNNNNN2             <qfxmNN    oNNN",
"NNNN     NNNNNNN            kNNNNNNk             NNNNNNN     NNN",
"NNNNX    NNmcfq<            NNNNNNNN             <qfcMNN    XNNN",
"NNNN$    NN=                pNNNNNNp                 =NN    $NNN",
"NNNN<    mN4                #NNNNNN#                 4Nm    <NNN",
"NNNN7    xNy                 =NNNN=                  yNc    7NNN",
"NNNNa    sNl                   Oo                    lNs    aNNN",
"NNNNx    5NM                                         MN4    xNNN",
"NNNNM     NN3                                       3NN     MNNN",
"NNNNN,    lNk                                       kNl    ,NNNN",
"NNNNNs    5NNO                                     ONN5    sNNNN",
"NNNNNm     bNf                                     fNb     nNNNN",
"NNNNNN5    8NN-                                   -NN8    5NNNNN",
"NNNNNNx     cNc       O&:2479tuagklxvbnmMNN       cNc     zNNNNN",
"NNNNNNN1    >NNp      NNNNNNNNNNNNNNNNNNNNN      pNN>    2NNNNNN",
"NNNNNNNc     yNN7                               7NNt     cNNNNNN",
"NNNNNNNN9     g3                                 3h     9NNNNNNN",
"NNNNNNNNMX                                             XMNNNNNNN",
"NNNNNNNNNz                                             zNNNNNNNN",
"NNNNNNNNNNp                                           pNNNNNNNNN",
"NNNNNNNNNNNq                                         qNNNNNNNNNN",
"NNNNNNNNNNNN7                                      *gNNNNNNNNNNN",
"NNNNNNNNNNNNNNNNNNNNNNNNNNNNNNNNNNNNNNNNNNNNNNNNNNNNNNNNNNNNNNNN",
"NNNNNNNNNNNNNNNNNNNNNNNNNNNNNNNNNNNNNNNNNNNNNNNNNNNNNNNNNNNNNNNN",
"NNNNNNNNNNNNNNNNNNNNNNNNNNNNNNNNNNNNNNNNNNNNNNNNNNNNNNNNNNNNNNNN",
"NNNNNNNNNNNNNNNNNNNNNNNNNNNNNNNNNNNNNNNNNNNNNNNNNNNNNNNNNNNNNNNN",
"NNNNNNNNNNNNNNNNNNNNNNNNNNNNNNNNNNNNNNNNNNNNNNNNNNNNNNNNNNNNNNNN",
"NNNNNNNNNNNNNNNNNNNNNNNNNNNNNNNNNNNNNNNNNNNNNNNNNNNNNNNNNNNNNNNN",
"NNNNNNNNNNNNNNNNNNNNNNNNNNNNNNNNNNNNNNNNNNNNNNNNNNNNNNNNNNNNNNNN",
"NNNNNNNNNNNNNNNNNNNNNNNNNNNNNNNNNNNNNNNNNNNNNNNNNNNNNNNNNNNNNNNN"
};
