/* XPM */
static char *_36eca9f53054f12cba3797a7dc40d3ciMcZIAZV3uuYVZhW[] = {
/* columns rows colors chars-per-pixel */
"64 64 9 1 ",
"  c None",
". c #2A2928",
"X c #2B2928",
"o c #2A2929",
"O c #2B2929",
"+ c #2A2A28",
"@ c #2B2A28",
"# c #2A2A29",
"$ c #2B2A29",
/* pixels */
"                                                                ",
"     ..$$$$$$$$$$$$$$$$$$$$$$$$$$$$$$$$$$$$$$$$$$$$$$$$$$$$     ",
"    $$$$$$$$$$$$$$$$$$$$$$$$$$$$$$$$$$$$$$$$$$$$$$$$$$$$$$$.    ",
"   .$$$$$$$$$$$$$$$$$$$$$$$$$$$$$$$$$$$$$$$$$$$$$$$$$$$$$$$$.   ",
"  $$$$$$$$$$$$$$$$$$$$$$$$$$$$$$$$$$$$$$$$$$$$$$$$$$$$$$$$$$$.  ",
" .$$$$$$$$$$$$$$$$$$$$$$$$$$$$$$$$$$$$$$$$$$$$$$$$$$$$$$$$$$$$$ ",
" $$$$$$$$$$$$$$$$$$$$$$$$$$$$$$$$$$$$$$$$$$$$$$$$$$$$$$$$$$$$$$ ",
" .$$$$$$$$$$$$$$$$$$$$$$$$$$$$$$$$$$$$$$$$$$$$$$$$$$$$$$$$$$$$$ ",
" $$$$$$$$$$$$$$$$$$$$$$$$$$$$$$$$$$$$$$$$$$$$$$$$$$$$$$$$$$$$$$ ",
" $$$$$$$$$$$$$$$$$$$$$$$$$$$$$$$$$$$$$$$$$$$$$$$$$$$$$$$$$$$$$$ ",
" $$$$$$$$$$$$$$$$$$$$$$$$$$$$$$$$$$$$$$$$$$$$$$$$$$$$$$$$$$$$$$ ",
" $$$$$$$$$$$$$$$$$$$$$$$$$$$$$$$$$$$$$$$$$$$$$$$$$$$$$$$$$$$$$$ ",
" $$$$$$$$$$$$$$$$$$$$$$$$$$$$$$$$$$$$$$$$$$$$$$$$$$$$$$$$$$$$$$ ",
" $$$$$$$$$$$$$$$$$$$$$$$$$$$$$$$$$$$$$$$$$$$$$$$$$$$$$$$$$$$$$$ ",
" $$$$$$$$$$$$$$$$$$$$$$$$$..   $$   ..$$$$$$$$$$$$$$$$$$$$$$$$$ ",
" $$$$$$$$$$$$$$$$$$$$$$$$$     $$     .$$$$$$$$$$$$$$$$$$$$$$$$ ",
" $$$$$$$$$$$$$$$$$$$$$$.    $  $$       .$$$$$$$$$$$$$$$$$$$$$$ ",
" $$$$$$$$$$$$$$$$$$$$$.   .$$  $$        .$$$$$$$$$$$$$$$$$$$$$ ",
" $$$$$$$$$$$$$$$$$$$$$  $$$$$  $$         $$$$$$$$$$$$$$$$$$$$$ ",
" $$$$$$$$$$$$$$$$$$$$$  $$$$$  $$         $$$$$$$$$$$$$$$$$$$$$ ",
" $$$$$$$$$$$$$$$$$$$$  .$$$$$  $$          $$$$$$$$$$$$$$$$$$$$ ",
" $$$$$$$$$$$$$$$$$$$$ $$$$$$$  $$          .$$$$$$$$$$$$$$$$$$$ ",
" $$$$$$$$$$$$$$$$$$$  +.$$$$$  $$           $$$$$$$$$$$$$$$$$$$ ",
" $$$$$$$$$$$$$$$$$$$  $$$$$$$  $$           $$$$$$$$$$$$$$$$$$$ ",
" $$$$$$$$$$$$$$$$$$$  $$$$$$$  $$           $$$$$$$$$$$$$$$$$$$ ",
" $$$$$$$$$$$$$$$$$$$           $$           @$$$$$$$$$$$$$$$$$$ ",
" $$$$$$$$$$$$$$$$$$$           $$           .$$$$$$$$$$$$$$$$$$ ",
" $$$$$$$$$$$$$$$$$$$$$$$$$$$$$$$$$$$$$$$$$$$$$$$$$$$$$$$$$$$$$$ ",
" $$$$$$$$$$$$$$$$$$$$$$@$@$@@@$@@$@$$$@@$$$$$$$$$$$$$$$$$$$$$$$ ",
" $$$$$$$$$$$$$$$$$$.                        $$$$$$$$$$$$$$$$$$$ ",
" $$$$$$$$$$$$$$$$$$.                        $$$$$$$$$$$$$$$$$$$ ",
" $$$$$$$$$$$$$$$$$$.                        $$$$$$$$$$$$$$$$$$$ ",
" $$$$$$$$$$$$$$$$$$O                        .$$$$$$$$$$$$$$$$$$ ",
" $$$$$$$$$$$$$$$$$$$                        $$$$$$$$$$$$$$$$$$$ ",
" $$$$$$$$$$$$$$$$$$$                        $$$$$$$$$$$$$$$$$$$ ",
" $$$$$$$$$$$$$$$$$$$                        $$$$$$$$$$$$$$$$$$$ ",
" $$$$$$$$$$$$$$$$$$O                        .$$$$$$$$$$$$$$$$$$ ",
" $$$$$$$$$$$$$$$$$$.                        $$$$$$$$$$$$$$$$$$$ ",
" $$$$$$$$$$$$$$$$$$$                        .$$$$$$$$$$$$$$$$$$ ",
" $$$$$$$$$$$$$$$$$$.                        $$$$$$$$$$$$$$$$$$$ ",
" $$$$$$$$$$$$$$$$$$$                        +.$$$$$$$$$$$$$$$$$ ",
" $$$$$$$$$$$$$$$$$$$                        $$$$$$$$$$$$$$$$$$$ ",
" $$$$$$$$$$$$$$$$$$$.                      .$$$$$$$$$$$$$$$$$$$ ",
" $$$$$$$$$$$$$$$$$$$.                      .$$$$$$$$$$$$$$$$$$$ ",
" $$$$$$$$$$$$$$$$$$$$$                    $$$$$$$$$$$$$$$$$$$$$ ",
" $$$$$$$$$$$$$$$$$$$$$                    $$$$$$$$$$$$$$$$$$$$$ ",
" $$$$$$$$$$$$$$$$$$$$$.                  $$$$$$$$$$$$$$$$$$$$$$ ",
" $$$$$$$$$$$$$$$$$$$$$$$                $$$$$$$$$$$$$$$$$$$$$$$ ",
" $$$$$$$$$$$$$$$$$$$$$$$$.            .$$$$$$$$$$$$$$$$$$$$$$$$ ",
" $$$$$$$$$$$$$$$$$$$$$$$$$$$        $$$$$$$$$$$$$$$$$$$$$$$$$$$ ",
" $$$$$$$$$$$$$$$$$$$$$$$$$$$$$@@$@$$$$$$$$$$$$$$$$$$$$$$$$$$$$$ ",
" $$$$$$$$$$$$$$$$$$$$$$$$$$$$$$$$$$$$$$$$$$$$$$$$$$$$$$$$$$$$$$ ",
" $$$$$$$$$$$$$$$$$$$$$$$$$$$$$$$$$$$$$$$$$$$$$$$$$$$$$$$$$$$$$$ ",
" $$$$$$$$$$$$$$$$$$$$$$$$$$$$$$$$$$$$$$$$$$$$$$$$$$$$$$$$$$$$$$ ",
" $$$$$$$$$$$$$$$$$$$$$$$$$$$$$$$$$$$$$$$$$$$$$$$$$$$$$$$$$$$$$$ ",
" $$$$$$$$$$$$$$$$$$$$$$$$$$$$$$$$$$$$$$$$$$$$$$$$$$$$$$$$$$$$$$ ",
" $$$$$$$$$$$$$$$$$$$$$$$$$$$$$$$$$$$$$$$$$$$$$$$$$$$$$$$$$$$$$$ ",
" $$$$$$$$$$$$$$$$$$$$$$$$$$$$$$$$$$$$$$$$$$$$$$$$$$$$$$$$$$$$$$ ",
" $$$$$$$$$$$$$$$$$$$$$$$$$$$$$$$$$$$$$$$$$$$$$$$$$$$$$$$$$$$$$$ ",
"  .$$$$$$$$$$$$$$$$$$$$$$$$$$$$$$$$$$$$$$$$$$$$$$$$$$$$$$$$$$.  ",
"   .$$$$$$$$$$$$$$$$$$$$$$$$$$$$$$$$$$$$$$$$$$$$$$$$$$$$$$$$$   ",
"    .$$$$$$$$$$$$$$$$$$$$$$$$$$$$$$$$$$$$$$$$$$$$$$$$$$$$$$.    ",
"     $$$$$$$$$$$$$$$$$$$$$$$$$$$$$$$$$$$$$$$$$$$$$$$$$$$$$$     ",
"                                                                "
};
