/* XPM */
static char *dbaaa4eaf2cc44af9a93429c8d6b7397gWTc4bgxsklK87X5[] = {
/* columns rows colors chars-per-pixel */
"64 64 238 2 ",
"   c None",
".  c #67453C",
"X  c #69443B",
"o  c #6F4439",
"O  c #68453C",
"+  c #774336",
"@  c #734437",
"#  c #764436",
"$  c #7A4335",
"%  c #36464E",
"&  c #37464E",
"*  c #36474E",
"=  c #37474E",
"-  c #36464F",
";  c #37464F",
":  c #36474F",
">  c #37474F",
",  c #39464E",
"<  c #3A474E",
"1  c #3C464D",
"2  c #3E464C",
"3  c #384850",
"4  c #394850",
"5  c #384951",
"6  c #394951",
"7  c #3A4A51",
"8  c #3B4A52",
"9  c #3B4B53",
"0  c #3B4C54",
"q  c #3C4C54",
"w  c #3D4C55",
"e  c #3E4D55",
"r  c #3F4E56",
"t  c #3F4F57",
"y  c #4B4647",
"u  c #4D4646",
"i  c #40474B",
"p  c #454649",
"a  c #474648",
"s  c #464749",
"d  c #44474A",
"f  c #564643",
"g  c #514645",
"h  c #5B4441",
"j  c #5B4541",
"k  c #5D4540",
"l  c #405057",
"z  c #425259",
"x  c #43525A",
"c  c #43535A",
"v  c #44545B",
"b  c #45545D",
"n  c #46555D",
"m  c #46565D",
"M  c #47565E",
"N  c #48575E",
"B  c #49585F",
"V  c #495860",
"C  c #4A5961",
"Z  c #4B5A61",
"A  c #4B5B62",
"S  c #4C5B63",
"D  c #4E5C64",
"F  c #4E5E66",
"G  c #505F66",
"H  c #526067",
"J  c #526068",
"K  c #536269",
"L  c #55636B",
"P  c #55646B",
"I  c #56656C",
"U  c #57666D",
"Y  c #58676D",
"T  c #5C6A71",
"R  c #5D6B72",
"E  c #5F6D74",
"W  c #606E76",
"Q  c #647279",
"!  c #657279",
"~  c #657379",
"^  c #65737A",
"/  c #67757B",
"(  c #68757C",
")  c #69777D",
"_  c #6A777E",
"`  c #6B797F",
"'  c #DB3F0E",
"]  c #DD3F0D",
"[  c #EF3E07",
"{  c #E33E0B",
"}  c #E33F0B",
"|  c #E63E0A",
" . c #E73F0A",
".. c #E03E0C",
"X. c #EB3E08",
"o. c #F23E05",
"O. c #F13E06",
"+. c #F63D04",
"@. c #F83E03",
"#. c #FC3D01",
"$. c #FD3D01",
"%. c #FE3D00",
"&. c #FF3D00",
"*. c #FD3E01",
"=. c #B4401D",
"-. c #B6411D",
";. c #8E432D",
":. c #9D4227",
">. c #9E4226",
",. c #9F4226",
"<. c #94422A",
"1. c #95432A",
"2. c #814332",
"3. c #A24225",
"4. c #A84122",
"5. c #A94222",
"6. c #C74016",
"7. c #CE4014",
"8. c #C34018",
"9. c #6C7980",
"0. c #6D7A81",
"q. c #6E7B81",
"w. c #6D7B82",
"e. c #6F7D83",
"r. c #727F85",
"t. c #728085",
"y. c #728086",
"u. c #748187",
"i. c #758289",
"p. c #758389",
"a. c #77848A",
"s. c #78848B",
"d. c #78858C",
"f. c #79868D",
"g. c #7B888D",
"h. c #7C898F",
"j. c #7D8990",
"k. c #7E8A90",
"l. c #7E8B91",
"z. c #7F8B92",
"x. c #7E8C92",
"c. c #12B1C5",
"v. c #00E5FF",
"b. c #808D93",
"n. c #818E94",
"m. c #838F95",
"M. c #849096",
"N. c #869298",
"B. c #869399",
"V. c #879499",
"C. c #88949A",
"Z. c #88959B",
"A. c #8B979D",
"S. c #8E9A9F",
"D. c #8F9AA0",
"F. c #8E9BA0",
"G. c #909CA2",
"H. c #919DA2",
"J. c #919EA3",
"K. c #929EA4",
"L. c #98A4A9",
"P. c #99A5AA",
"I. c #9BA6AC",
"U. c #9EA9AE",
"Y. c #9FAAAF",
"T. c #A0ABB0",
"R. c #A1ACB1",
"E. c #A1ADB2",
"W. c #A2ADB2",
"Q. c #A3AFB4",
"!. c #A4AEB4",
"~. c #A4B0B5",
"^. c #A6B1B5",
"/. c #A5B0B6",
"(. c #A7B1B6",
"). c #A7B2B7",
"_. c #A9B3B9",
"`. c #A9B4B9",
"'. c #AAB5BA",
"]. c #ABB6BB",
"[. c #ACB6BB",
"{. c #ADB7BC",
"}. c #ADB8BD",
"|. c #AEB8BE",
" X c #AFB9BE",
".X c #B0BABF",
"XX c #B0BBBF",
"oX c #B0BAC0",
"OX c #B1BBC0",
"+X c #B1BCC0",
"@X c #B2BCC1",
"#X c #B3BCC2",
"$X c #B4BEC2",
"%X c #B4BFC3",
"&X c #B4BFC4",
"*X c #B5C0C4",
"=X c #B7C0C6",
"-X c #B7C2C6",
";X c #B8C1C5",
":X c #B9C3C7",
">X c #BBC4C9",
",X c #BAC4CA",
"<X c #BBC5CA",
"1X c #BCC6CA",
"2X c #BDC7CB",
"3X c #BDC7CC",
"4X c #BFC8CC",
"5X c #BEC8CD",
"6X c #BFC9CD",
"7X c #C0C9CE",
"8X c #C0CACE",
"9X c #C1CBCE",
"0X c #C1CBCF",
"qX c #C2CBCF",
"wX c #C2CBD0",
"eX c #C3CCD1",
"rX c #C3CDD1",
"tX c #C4CDD2",
"yX c #C4CED2",
"uX c #C5CFD2",
"iX c #C5CED3",
"pX c #C6CFD4",
"aX c #C5D0D2",
"sX c #C7D0D4",
"dX c #C7D1D5",
"fX c #C8D2D6",
"gX c #C9D3D6",
"hX c #C9D2D7",
"jX c #CAD3D7",
"kX c #CBD3D7",
"lX c #CBD4D8",
"zX c #CBD5D9",
"xX c #CCD5DA",
"cX c #CDD6DA",
"vX c #CDD7DB",
"bX c #CED6DA",
"nX c #CED7DB",
"mX c #CFD8DC",
/* pixels */
"                                                                                                                                ",
"                                                                                                                                ",
"                                                                                                                                ",
"                                                                                                                                ",
"                                                                                                                                ",
"                                                                                                                                ",
"                                                                                                                                ",
"                                                                                                                                ",
"                                                      - - 3 - - - - - , -                                                       ",
"                                              , - = - 3 , = = 3 = 3 : * 3 = - , -                                               ",
"                                        * - = - = 3 - = * : * : 3 = 3 - 3 - * * 3 = * -                                         ",
"                                    - 3 : 3 = 3 = - 3 = - 3 , - - - 3 = = - 3 , - - 3 = : ,                                     ",
"                                  = = = > > = - 3 A e.D.(.1XuXnXkXuX;XT.Z.^ l - = 3 - = 3 - -                                   ",
"                              - = = 3 - > > n h.$XmXmXmXmXmXmXmXmXmXnXnXmXmXnX/.9.t 3 * 3 = 3 = -                               ",
"                            - = - - > > A J.zXmXmXmXmXmXkX&X_.'._._.&XnXmXmXmXnXnXwXk.t - - = - = -                             ",
"                          - 3 = - - t m.jXmXmXmXzXY.i.F 3 - _ mXmX_ - 3 F i.R.nXmXmXmXqXe.- = 3 3 = -                           ",
"                        - = = = = J =XmXmXmX6Xk.c , : - = 3 _ mXmX_ > > > > > c k.wXmXmXmXR.x : - - = *                         ",
"                      - = = - - 9.gXmXmXgX'.r.- - 3 : 3 = - _ mXmX_ > > > > > = n aX{.jXmXmX6XP = 3 - 3 -                       ",
"                    = = 3 3 - f.mXmXmX'.6XmX6Xt - = 3 = 3 3 _ mXmX_ > > > > - = P.mXmXZ.'.mXmXsXE 3 = 3 3 -                     ",
"                  - 3 - - = f.mXmXmXB.3 m.mXmXB.3 = - - - = _ mXmX_ > > > > - Y mXmX1Xt 3 V.mXmXgXR = - : : ,                   ",
"                  = 3 3 - 9.mXmXnXi.- 3 t 6XmXkXA - , 3 3 = n J n t - , 3 - 3 {.mXmX/ - - = s.mXmXpXJ 3 * 3 -                   ",
"                - = - = F sXmXmXd.3 = = - 9.mXmXF.3 * : - * - = 3 - * * = - A 1XmX!.* - 3 = * i.mXmX>Xl = - 3 =                 ",
"              - 3 - * 9 @XmXmXB.- * 3 - * 3 (.f.3 3 = - = 3 3 - 3 = 3 - : 3 3 3 M.S 3 - 3 - = - C.mXmXI.3 , * - -               ",
"              * = - 3 b.mXmX'.3 - 3 = - 3 3 : , = - 3 3 = - = - - - 3 = : , 3 3 = - 3 = = - 3 3 3 _.mXmX^ - : 3 =               ",
"            , 3 - - B gXmXgXY.A = 3 3 3 = 3 - - = = 3 - - = 3 3 = 3 - = 3 3 - = 3 - = = 3 - - = > A gXmX1X3 - 3 3 -             ",
"            - * = 3 G.mXmX/.mXjXM.3 = - - 3 = 3 3 - 3 = 3 = - = = - 3 = - = - 3 = - 3 - 3 = p O > : k.mXmXi.= : : ,             ",
"            - 3 , c gXnX8X@XmXmXmX;XR - - = 3 = - 3 - = 3 - = - 3 3 - - = - = 3 = 3 = , , 2.o.o.p > t 6XmX>X3 3 : =             ",
"          > = = * f.mXmXk.3 f.sXmXmXs.= 3 = - - = = - 3 = - 3 3 - = = 3 3 3 = - - 3 = X ' $.$.$.>.> 3 k.mXmXW = 3 - >           ",
"          - 3 - : @XmXzXx - = n K.$X3 3 , : = 3 3 - = 3 - = - = 3 = = - - - = 3 , u -.$.@.o.@.3.i > > v nXmXL.- 3 = =           ",
"          = = - n mXmXT.3 = - 3 - t = - 3 : - 3 3 = - 3 - 3 3 : - - 3 3 = 3 - 2 <.+.$.$.$.' g > > > > > R.mXtX3 - - 3           ",
"          : 3 3 9.mXmXi.- - = = - = 3 3 - - = = - - = = = = 3 : = 3 - = = , @  .$.$.$.] o > > > > > > > s.mXmXP = 3 :           ",
"        , : - = S.mXmXF = 3 3 - = = - = = 3 3 - = 3 3 - 3 - - u d - 3 = f 6.$.$.$.o.<., > > > > > > > > G mXmXs.= - : ,         ",
"        - - - 3 /.mXnX3 = - = - - 3 3 = 3 = = - 3 = : : , o  .$.$.6.k 5.$.$.$.$.-.p , - = 3 - = 3 3 - = : zXmXS.* * 3 -         ",
"        - 3 = = >XmX@X- 3 3 = - = = - - - - 3 3 - - 3 , @ $.$.$.$.$.$.$.$.$.7.k 3 = * 3 = - 3 = - = - 3 - =XmX/.- 3 : :         ",
"        * = 3 - uXmX[._ _ _ _ _ 3 - = 3 = 3 - = = 3 = 3 ..$.$.$.$.$.$.$.| $ = = 3 - = - 3 3 - - _ _ ` _ _ {.mX X= = 3 ,         ",
"        , = = - zXmX.XmXmXmXmX8X3 = - 3 = - 3 = = - = = $.$.$.$.$.$.$.| i 3 * 3 = - 3 3 - = = 3 tXmXmXnXmX@XmX=X3 - - -         ",
"        - = 3 3 gXmX@XmXmXmXmXtX- - = 3 = 3 - - 3 3 - = X.$.$.$.$.$.$.-.= 3 - = 3 - = = = - - 3 tXnXmXmXmX@XmX$X= - * ,         ",
"        > : - = 6XmX@X_ _ ` _ _ = 3 = - - 3 = 3 - = - 3 >.$.$.$.$.$.$.O 3 * - 3 = - 3 - 3 3 = = _ _ _ ` _ @XmX_.3 3 * =         ",
"        , * - 3 $XmX;X> - = 3 = 3 = 3 - - = 3 = = - = 3 2 8.$.$.$.$.1.3 = - = 3 = 3 - 3 - = 3 - - = = = - >XnXU.- = = -         ",
"        - 3 = 3 /.mXgX3 3 = - - - - 3 = 3 = - - 3 3 = - , , @ 5.3.k = - 3 3 = - - 3 = = - 3 = - * * 3 - 3 nXnXJ.- 3 - -         ",
"        - = 3 - C.mXmXP * = = 3 = 3 3 - = = 3 - 3 - = = 3 - = 3 - 3 - = = 3 - - = = 3 - - = 3 3 > > > > Y mXmXy.= 3 3 -         ",
"          * 3 = ^ mXmXf.3 = - 3 = - = - 3 - 3 = = - 3 - 3 = - 3 = = - 3 - 3 = 3 3 - 3 = 3 * - = > > > > h.mXmXG = - =           ",
"          : - = x mXmXR.- = 3 = 3 3 - 3 - 3 - = = 3 - 3 - - = = = - = 3 - = 3 = - 3 - = = 3 3 : > > > > R.mXuX> 3 3 -           ",
"          , - 3 -  XmXnXN - - 3 e..X8 = = = - 3 - 3 = = = 3 3 - 3 3 = - 3 = - - = = - 3 3 3 @Xk.9 > , N nXmXP.3 - = *           ",
"          : 3 - - r.mXmXm.- H '.mXmXx.3 3 3 - = - = 3 - > > , - - = = 3 - = = 3 3 - = 3 - f.mXmX=X^ - M.mXmXE : 3 = -           ",
"            3 = - t sXmX6XB.nXmXmXgXg.= - = - 3 c.c.c.c.c.c.c.c.c.c.c.c.c.c.c.c.3 = - 3 * C.nXmXmXmX!.6XmX>X3 : - =             ",
"            - , : 3 Z.mXmX[.mXmXR.A 3 - = - = 3 v.v.v.v.v.v.v.v.v.v.v.v.v.v.v.v.- - = = = = H /.mXmX XmXmXg.3 = = -             ",
"            - : : , l 8XmXzX.X_ - - = - 3 3 = - v.v.v.v.v.v.v.v.v.v.v.v.v.v.v.v.= 3 3 - 3 - - * ^ @XzXmX>Xq - - 3 =             ",
"              3 - = = r.zXS.t - > > > > > > > > v.v.v.v.v.v.v.v.v.v.v.v.v.v.v.v.> > > > > > > > * t m.gX` - - = 3               ",
"              * - 3 - 3 A - - - > > > > > > > > v.v.v.v.v.v.v.v.v.v.v.v.v.v.v.v.> > > > > > > > : 3 - V 3 - = =                 ",
"                , : 3 3 - 3 , - > > > > > > > > c.c.c.c.c.c.c.c.c.c.c.c.c.c.c.c.> > > > > > > > = - , - = 3 * ,                 ",
"                  * - = = = = * > > > > > > > > > > > , > > > > , - > > , - > > > > > > > > > > 3 3 = - - 3 :                   ",
"                  - > > 3 3 - = > > > > > > > > > > > > > > > > : - = 3 > > > > > > > > > > > > - = > > > > -                   ",
"                    > > - = - 3 > > > > > > > > > > > > > > > > : 3 = - > > > > > > > > > > > > - 3 > > - -                     ",
"                      > > > , > > > > > > > > > > > > > > > > > > > > > > > > > > > > > > > , - , > > > -                       ",
"                                                                                                                                ",
"                                                                                                                                ",
"                                                                                                                                ",
"                                                                                                                                ",
"                                                                                                                                ",
"                                                                                                                                ",
"                                                                                                                                ",
"                                                                                                                                ",
"                                                                                                                                "
};
