/* XPM */
static char *dirt_path_side1686578736[] = {
/* columns rows colors chars-per-pixel */
"64 64 11 1 ",
"  c None",
". c #593D29",
"X c #79553A",
"o c #6C6C6C",
"O c #856B3A",
"+ c #966C4A",
"@ c #907540",
"# c #998043",
"$ c #AA8D4A",
"% c #B9855C",
"& c gray53",
/* pixels */
"                                                                ",
"                                                                ",
"                                                                ",
"                                                                ",
"#$#$#$@###$#$$$#$$#$#$$##@$#$##$$$#@##$#$$$@#$$$##$#$$#$$#$$#$##",
"###$@$@#$##$$#$##$$##$#$@#$##$##$$#@@#$##$#@#$#$$#$$#$$#$#$$#$#@",
"$#$$@#@#$$@$##$@$#$##$@$#$$@#$@#$#@@@##@$###@##$$##$#$##$@#$$##@",
"$@$#@@$#$#@$#$#@$##$@#@##$#O#$@##$@#@$#@##$#@#$$$@#$@#$#$@#$$#$@",
"$@$@#@#$#@O#$$@#$$##@@##$##O@#@@$$#$##$@#@#$@@$#$@##@#$##@@#$@$#",
"@#$@#@#$$@O#$$#$#$#@@.#@$$#O@#$@$##$$$@@#@#$#@$###$@@O$#@O@##@#@",
"#$@###$$@@O@$#$$#@#@.X@@#$@.$#$O$#@#$$O@##@$#@#$#@$$O.#$@O#$#@@O",
"##@@##$#@#O@#@$#$@##.XX@#$O.#$$O#$#@#$OO@#@#@@#$#@#$OX@#O.#$@@O+",
"#@X@@###@$OO@@#$$@@#XXX.@$.X#$#@#$$@$@.O@#O@@####@@$.X@@OX@#O@XX",
"@O+XO@#oO$XO@@#$@@X@..XX@#XX+$O@@$##$@XO@#O@@#@#@@@$.XX@+X@$X@+X",
"@+%+OOooO@X+@O#$@OX..+++@@X++X@OX@#$@OX.@@OO@#@@O.O#XX+X++@@XX+X",
"OX%++OoXO@+%O+##@O.X+++++@X+XX@OX@#$@XX.O@.O@#O@O.O@+XX++++@.XX+",
"XX+%++XXXO+%+%$#OXX+X++XXO+XXXOOX+@$O+XXOO.X@#OO.XOO+XXXX+XXX.++",
"XX++XX+XXO++%%@#OXXX++%%XOX.XXO+XX@@OXXX.OXX@@.OXXXOXXX++XX...X+",
"X+XX+XX++XX+++@@+X+%%%++++XX.+XX++@OXX..XXXoO@&oX..XXX++X....XXX",
"XXX+XX++XX++++X@XXX+%++++X....XXX+XOX..X.X+o&OoX..XXX+XX+X.XXXXX",
"XXXXX.XX+++XXX+O..++++++XXX.XX..XXXX.XX.XXXXo...X++X+XXXX.XXX++X",
"+XXX...XX+++X....+XX++X+X++XXXX...XXXX+XXX+X...X+XX.X+X+XXXXXX+%",
"%++...XXXXX++X.XXX++XX+X++XX+XX+XXXX++X+XXX+XXX..X.XX+++XXXX+%%+",
"%%++X..X+XXXX+XX+++X+XXXXX++XX+%XX+++XXX+X+++X......XX+%+XX+++%%",
"%++X.++++X+XXXXXX&&XXXX++XX+++%%+%%+XX++%%%+X.XXX..X++%%+X+X+%+%",
"%+X+XX++X.X++XXX&&o&X++XXXXX+++%%+XX.XX++%%%%%XX..XXX+%+++XX%%++",
"+%+XXXXX.XXXXXX++o&&o+X+X..XX%%+++++...X+++%%+%%XXXX+%+%X+XX%+X+",
"X+++X.X+XX+X+X++Xo&o+++X..XX++%%+++%X.XXX+%%+++%%+X+%%++XXX+++XX",
"+XX..X.X+XX+++%%++oo+%%+XX.X.X+++%%+XX..+X++%++++XX++%%++X+X+++X",
"++XX..XXXX++%%%%%%o+%%++XX..X+++%%+++XX..XX+++++XXXX+X+XXXX++XX+",
"+%%XXX..X%%%%++%%++XX+%++.X.XX+XX++X++XX+++XXX+X++XXX+XXX+++++XX",
"++%%X..+%+%%++%%++XX+X++XXXXX.XX++XX+XX++%++X+XXX++XX..X+X++..+X",
"+%%+%++X++%%%+++XX+++XXX++X..X+XX+++X++%%++++XXX+XX...XXXX..X+X+",
"+%++++XX+X+%+X+XX++X++X++X..XX.+XX++++%+%%+++++X.XXX.XXX.XX..X++",
"++%+XXX+XX++++X++XX.++XXX+XX..XXX+X+X%%%+++++X..XX..XX....XXXXXX",
"X++++XXXXXXX+XXX+X.X+XX.XX...X+X++XX+++%%+XX...XX..++XX..XXX++XX",
"+X++XXX+..XXX+X+X..+XXXX...X++X++X++XXX++X..XXXX.+++%+XXX.++%%++",
"X++XXX+%+...XXXXXX..XX.XX...+XXXX.X++X++XXX..+XX++%%%%+XX++%%+++",
"++.XX+%%+XX...XXXXXX....XX++XXX..XX..XXXX..++XX+%%++++%%XXX++%%%",
"X.XXX%+%X....X..X+X..XX+XXX++X..XXXX..X+XX++XX+%%++++%%+XXXX++%+",
"..XX+%++%X.XX..++X+%%++XX+++%%XX.X..XXXX++XX.X++%++%%++XX&X++X+X",
"X..+++%+++X.+XXX++%%++X+++%%%++XX..X+X+%+++X..X++%++%%XX&&&oX+XX",
"XXX+X+%+XX++XX++%%%+%%++%%+++%%+..XXX+++%%%+X.XX++++++X+o&o&ooX+",
"+XXXXX++X++XX+%%+%%%%++%+%%+%%++X.X+++%%++%%X.X++X+++X++Xo&ooX+%",
"%++XXX+XXXX++%%++++++%+++++XX++X+&&X+%+%%++XXX..XXX++XX+XXoo+XX+",
"%%++X.XX.XXX+++%++++%%%++X++XX++&&&&++++%%++XXX..X++XXXX+XXXX++X",
"%+XX.XX.X..XXXX++++%++%%X+XX++X&&o&+++++++XX++XXX..X++XXXX..XX++",
"++XXXXXX..XXX+XX+++++++%+XXXX++oo&oX+++X+++XX++X..X.X++XXXX...X+",
"+X+X....XX+X++++++X+++++%++XXXXXooX+XXX+++++XXXXXXXXXXX+XX+++X..",
"XXXXX.XXXXX++XX++XXX+X++++XXX+X++oXXXX+++X+XXXXX++XX++XX++++X..+",
"X+XXXX+%%++..+XX++XXX+++++++XX++XXXX+++XXXX+++X++XXXX+++++%+%%+X",
"XX+X++%+%%XX..X++XX++++++%%+++XX.XX++XX+++XX+++XXX.XXX++%%+++%%+",
"+X+XX++%+++XXX..XXXX+XX++++%%%++X..XX+++%%+++X.X..++X+%%%++%%+X+",
"X+XX++%%%+X+X.X..X+X.X++XX++%++++X..XX.++%%+XXX..++X+%+%+++++XXX",
"+XXXXX++XXX..+XXX.X++..X++XX+++X++XX..XXX++%+..XXXX++++++XX+++X+",
"+++XX++XXX..XX++XX++X+..X+X+++X.XX+XX..X++++..X.XXXX+X++XX+++++X",
"++XXX.XX..XXX++XXX..XXXXXX+XX..XX+%%XX..X+..XXXX++XXXX+X+++XX+++",
"+X+XXX.....XXXXXX..X..XXXXX...++%%%+%..X+XX..X+++X++X+XX++++XXX+",
"XXX++..XX.XX+XX++XXXX...XXXX.++%%+++++++XX.X+++XX++X..X+X++X+XXX",
"XX++XXX.XX+++%++XXXX...X.&&XX.X+%%++%++XX..XX+++XXXXX..XX+XXXX..",
"X+XXXXXXX+%+%%%++++XX.XX&&&&ooXX++%%+XX..XXXX..XXX+++XX.XX+X..XX",
"+XXX++X+%%%%%++%%+++XX.&&&oooX+XX++%%++X..XX..XX++++XXX+XXX..X+X",
"%++XXX+%%++%++X++X+X++XX&o&oXXX++XXX++X+XX..XXX++XXXX+++++.X..X+",
"+%++XXX+++%++XXX++XXX++XXo+XXX++XXX++XXX+XX..XXX++XX+XX++X++XX++"
};
