/* XPM */
static char *east1686338613[] = {
/* columns rows colors chars-per-pixel */
"64 64 168 2 ",
"   c #1D1A2D",
".  c #1D1731",
"X  c #1E1C31",
"o  c #221A2F",
"O  c #261D35",
"+  c #261D38",
"@  c #281F3C",
"#  c #262135",
"$  c #2A2237",
"%  c #262339",
"&  c #2B243C",
"*  c #2D2A3E",
"=  c #302B3F",
"-  c #2C2542",
";  c #2F2A45",
":  c #302742",
">  c #332C45",
",  c #382E46",
"<  c #352749",
"1  c #342D4A",
"2  c #3A2D4C",
"3  c #353245",
"4  c #383346",
"5  c #35314B",
"6  c #3B344C",
"7  c #3D3A4D",
"8  c #372D51",
"9  c #3B2F51",
"0  c #3C3453",
"q  c #3E3953",
"w  c #3D335A",
"e  c #3F3B59",
"r  c #42394C",
"t  c #413653",
"y  c #423C55",
"u  c #483B57",
"i  c #41365A",
"p  c #443C5A",
"a  c #493E5C",
"s  c #453B61",
"d  c #493E62",
"f  c #454155",
"g  c #4B4456",
"h  c #46415B",
"j  c #4A445D",
"k  c #47485C",
"l  c #4E4A5D",
"z  c #50475A",
"x  c #514D5E",
"c  c #474462",
"v  c #4C4463",
"b  c #4E4A64",
"n  c #4E4569",
"m  c #4F4A69",
"M  c #514664",
"N  c #524B65",
"B  c #594D61",
"V  c #524669",
"C  c #534C6B",
"Z  c #594E6D",
"A  c #535167",
"S  c #5A5266",
"D  c #56526C",
"F  c #5A546D",
"G  c #5C5B6E",
"H  c #554C71",
"J  c #594E71",
"K  c #575171",
"L  c #5C5473",
"P  c #5D5973",
"I  c #5D5479",
"U  c #5E5A79",
"Y  c #625E6F",
"T  c #625675",
"R  c #625B75",
"E  c #61557B",
"W  c #645C7C",
"Q  c #695E7C",
"!  c #5F6075",
"~  c #636177",
"^  c #66617C",
"/  c #6A637D",
"(  c #6C697F",
")  c #71647E",
"_  c #726A7F",
"`  c #5F5381",
"'  c #625782",
"]  c #655D82",
"[  c #6A5E82",
"{  c #6D5E8A",
"}  c #666183",
"|  c #6B6384",
" . c #6D6A84",
".. c #66618A",
"X. c #6C648A",
"o. c #6E698B",
"O. c #716685",
"+. c #726B85",
"@. c #72658B",
"#. c #736B8C",
"$. c #796D8D",
"%. c #757187",
"&. c #7A7186",
"*. c #75718D",
"=. c #7A738E",
"-. c #7D788F",
";. c #6E6690",
":. c #6E6991",
">. c #746591",
",. c #746C92",
"<. c #796E93",
"1. c #776F98",
"2. c #7C6E9A",
"3. c #767192",
"4. c #7B7394",
"5. c #7E7994",
"6. c #767299",
"7. c #7C749B",
"8. c #7E799A",
"9. c #7E75A1",
"0. c #7E79A2",
"q. c #82768D",
"w. c #817695",
"e. c #827B95",
"r. c #897E97",
"t. c #82759B",
"y. c #837B9C",
"u. c #897D9D",
"i. c #8476A4",
"p. c #847CA3",
"a. c #897DA4",
"s. c #877DA9",
"d. c #8B7EA9",
"f. c #858096",
"g. c #86819C",
"h. c #8B839D",
"j. c #8B899F",
"k. c #8681A2",
"l. c #8B83A4",
"z. c #8E89A4",
"x. c #8681A9",
"c. c #8C84AB",
"v. c #8F89AB",
"b. c #9186A3",
"n. c #928BA4",
"m. c #9185A9",
"M. c #938CAB",
"N. c #998EAC",
"B. c #9691AC",
"V. c #9A92AD",
"C. c #8F86B1",
"Z. c #9287B2",
"A. c #948CB3",
"S. c #998EB4",
"D. c #988CBA",
"F. c #9691B2",
"G. c #9B93B3",
"H. c #9E98B3",
"J. c #9C94BC",
"K. c #9F98B9",
"L. c #A097B4",
"P. c #A19BB6",
"I. c #A197B9",
"U. c #A49CBB",
"Y. c #A7A1BB",
"T. c #AAA6BD",
"R. c #A39AC4",
"E. c #AAA3C2",
/* pixels */
"| h =.#.w.O.O.T @.w.Q M M P %. .0...g...6.^ 3.m i l.2.@.i.i.i.` i.` d.q.I 9 C #.6.} 0.4.k.P l 7 ! *. . .3.k 5 *.j.6.8.6.8.0.8.x.",
"v q w.=.q.@.q.T Q w.Q p v L *.^ o...k.6.*.o.3.m 8 #.>.>.t.t.i.{ { ` d.a.w.d j L 3.3.3.5.z.*.f f D  . . .*.D 5  .k.8.k.8.6.p.i.c.",
"v p y.w.O.q.q.T V u.a.C q c *.:.] ..3.k. .8.3.m < V @.4.w.{ >.>.i.>.i.@.o.q t ^ 5.g.3.#.k.%.7 f b ! o.3.*.o.e  .k.g.k.3.6.p.i.x.",
"O.C 4.e.{ w.w.[ u r.L.$.0 e } g.o.} ..k.o.c.8.W w 0 Q y.q.{ { t.>.t.w.E ~ 3 6 &.5.8.f.P  .f 3 7 b U *.*. .g.b  .j.5.8.3.7.k.p.p.",
"l.P $.k.O.#.$.w.v O.l.l.c c m 3.8. .} 8.7.8.y.f.L 2 J t.q.[ E w.4.w.O.T Q 4 r &.~ P / q f * 3 7 D ! *. .! j.D  .y.4.8.4.9.x.i.7.",
"l.L @.N.O.F V t.M L g.K.I h e  .6...X.3.4. .*.M.4.0 a @.w.Q V Q w.@.F Y S > * l 3 ; 5 5 * 4 f S  . .*. .! 8.! ! g.4.8.4.8.p.6.7.",
"y.L ^ G.@.M 2 q.L V k.Y.3.e e } o.3.| 3.8.| W f.h.g 6 R $.T d Z | T T +.F & # $ ; 6 y k f k l _ *.*.3.o.} -. . .v.5.y.t.8.6.,.9.",
"y.L L H.e.T 9 t.O.p 5.M.v.m h m o.7.! *.k.5.F O.b.v > L @.Z u a <.[ T +.u O p N L @.k. .%.f k %.*.o.*. .} *.5.o.B.g.p.y.6.:.;.i.",
"=.T Z N.d.u.Q q.e.9 Q B.P.R 5 c :.3.3.! k.g.^ k q.u t B ) d T Q a.E Q T < d $.$.t.X.m.,.,.b v  .*.*.! 3.A 5.( *.F.g.y.y.:.c...7.",
"e.Z z L.L.w.Q O.w.T M n.F.#.c b P  .*.3.3.-.5.k M < t T q.T { >.i.2.n d $.O.r.O.>.X.7.,.,.c C  .*.*. .*.K *.~ 5.k.4.3.o.,.7.7.7.",
"r.v t L.N.q.q.q.r.O., e.Y.} y 5 c  . .f.^  .B.A < = t Q { ) { q.d.>.s t.U.$.m.[ ,.2.>.9.X.w I  . .:.*.*.! U D 6.o.*.o.4.i.6.0.1.",
"y.S r N.u.q.r.B =.q.j R B.G k q c  . .5. .G f.b : u d O.Q { w.>.t.>.d d.I.$.w.Q >.s.;.i.' 8 ^ #. .*.5. .} h e  .| *.o.c.4.s.1.9.",
"+.y 3 h.b.q.b.Y Y n.+.* 7 6 7 5 q ! *.-.j.P C q < V T @.' >.t.>.>.d.d d N.r.T d ' 7.{ 9.I 9 @.*.}  .5.} *.y ; A  .o.*.7.] k.:.c.",
"+.4 O _ r.q.h.q.) n._ 7 & f 3 7 f ! +. .z.^ 1 0 t J [ #.{ 2.i.{ { O.J t u.q.d t E <.2.<.J n #.+. .} 3. .6.k ; h #.} 8.o.,.i.1.s.",
"f.g $ g B z T x 4 r 3 3 * 3 * 3 A ( ^ ( e.%.1 y M W @.@.{ >.t.{ T V Z ) q.) u u #.O.4.L V J $./  .} *. .-.c ; 0 #. .4.3.i.s.7.7.",
"Y = o $ = r = o > r k 7 *   f 7 A =.~ f.5.g.0 0 J [ @.[ { { i.>.J @.t ) O.r.a q.<.T @.0 i R -.O. .} *. .3.b ; 5 7.5.E 3.,.p.6.1.",
"* 7 & 6 u a i Q K @.y.^ L 4 5 A !  . .*.*.B.k k  .} [ @.{ >.i.@.T O.V e.| r.V | 4.i t.i a =.O.O.o.^ 3.o.5.b 5 e } 6.:.6.9.3.,.d ",
"f Y q.h.l.y.E t.>.>.y.$. .q 7 ~  .*.} *.%.j.k e | | [ O.{ { 7.>.M e.( w.=.| $.| y.i M V L #.~ $.3.} 3.%.*.A q e U :...3.,.X.@.n ",
"g ^ V.L.N.d.E w.2.@.#.4.o.e h ^  . .! o.*.B.k e | @.[ X.@.X.>.>.9 @.a.=.<.4.$.[ p.L - C / #.T $.<.| #.*.6.D e c U :...:.;.| @.V ",
"f ( h.h.r.>.E t.[ [ @.,.R y b ~  . .G D ! j.} 5 [ #.| [ >.{ >.2.v $.r.4.<.m.X.| w.4.9 p T 4.T | $.o.$.4.8.P 5 c ] :.:.6.>.@.4.R ",
"p &.u.n.d.$.w.w.W [ #.8.K 7 D ( *.o.k q k g.5.q U *.| | @.X.#.>.| m.@.y.t.<.t.,.@.y.W 0 J 4.Q @.@.@.@.e.g.P 5 c ..6.:.1.>.$.8.T ",
"t $.r.m.d.O.t.{ @.[ @.l.D 3 G *.:.:.! m } g.x.q A #.#.| { @.,.| Z O.4.4.b.| 2.4.@.2.2.i L #.W #.| @.| e.h.^ 5 c  .6.;.:.>.4.w.L ",
"h *.b.u.t.{ t.q.<.| | k.b 6 ! *. .o.*.5.8.k.B.k v | $.| Q @.2.E i Z y.<.a.7.{ ,.,.X.X.v Z | | @.[ [ [ w.j.( 4 D o.6.>.,.,.$.<.J ",
"h +.L.u.w.{ q.{ 4.$.| 3.k c *.+.o.o.6.k.j.8.K.! y W $.| E @.4.L v y.@.y.7.t.7.@.i.@.I d n [ @.[ [ @.Q 4.h. .0 P o.7.,.6.>.#.<.F ",
"C l.l.l.w.d t w.w.[ @.Q h A +. . .8.6.5.G. .M.f.e ^ *.@.] Q #.] I 4.@.l.<.t.<.p.<.i.I < d ] | <.Q #.| ^ B. .5 P 7.o.6.:.8.o.y.M ",
"} l.b.k.E t t { >.w.$.u 5 ~ ~  .6.o.z.j.B.g. .l.y I  .^ @.[ <.' J 4.4.y.<.>.2.2.,.t.X.n w [ | #.W @.*.R z.! 5 } 6.X.:.3.y.| w.N ",
"o.v.l.t.d i J >.| $.[ 1 6 *.D %.*.g.K.k.M.U.L D p K X.W 4.| 8...C y.y.w.8.| 4.] @.,.c.| 0 [ O.#.E Q 5.G B. .q ! 3. .:.7.y.Q $.V ",
"@.S.l.<.Q Q w.w.@.w.$.v 5 A k z.z.k.*.k.B.| 0 0 v L o.o.,...i.8.V a.y.$.2.o.t.E <.Q G.w.d W O.=.J M *.A B.( 7 ^ *.o...:.t.O.@.M ",
"p.G.7.X.t.t.w.$.w.( v , . & 3 b ! ! 0 v D > y y K } ^ 4.X.,.0.c.V e.=.=.@.$.4.E 4.E l.a.d | } w.J v 4.F 5.A 5 } o.3.X.X.7.$.@.p ",
"J.p.[ E l.u.@.$.O.T l t q b A 4 c } / 6 - q K D  .@.I 7.X.7.9.x.J =.<.$.@.4.$.} 4.@.[ 4.j +.L u.[ T n.R G 6 q *. .8.X.} <.4.+.u ",
"S.@...L w.u.$.w.R $.U.w.=.f.z.-.g.n.G.5.v N A ~ $.o.U 6.1.6.9.c.F / y.$.=.#.| @.$.4.T V V O.F r.O.w.P./ 7 5 A  .} 4...X.$.$.$.z ",
"v.X.t.I [ a.u.@.$.+.L.) 5.h.4.*. .h.e.5.y R / U #.o.| 7.6.;.9.A.F T n.@.e.} [ $.$.e.T + R F R e.O.=.B.T % 7 ! U ] 3.| o.<.$.@.F ",
"d.@.@.[ } m.@.4.Q e.N.O.q.t.@.w.4.y.h.+.k F ( U *.....0.6.6.0.z.C ~ y.^ 4.o.} o.*.+.=.r 3 7 P j.( n.z.A ; 0 K K X.3.| 4.O.w.a ) ",
"u.$.[ [ | y.#.4.Q O.b.O.w.q.T T 4.8.l.R h !  .} 3.:...x.6.8.8.z.B F g.} ,.#.| | *.q.%.4 4 7 q v N g c 4 - p m s } 3.| w.$.$.u O.",
"r.w.[ O.@.w.3.4.| } N.@.w.@.t t / $.k.R q +.}  .:.o...v.6.8.6.B.b v h.^ X.,...@.} 5.( * % % 1 D f 6 ( ~ ; - 0 i E <.O.e.$.Q r w.",
"t.w.[ @.<.<.y.4.W R G.q.@.q.t 2 L #.4./ * /  .} 6...:.0.6.6.8.B.g f g./ o.4.#.#.4.h.~ 5 > - C U.*.N h.M.K C V 2 Z #.@.e.$.T : r.",
"t.t.O.q.4.#.p.y.C L H.a./ u.Z L ] $.,.L ; b z. .3.} :.0.0.3.k.v.q r e.^ X.6.<.,.8.4.v 0 v c E R.M.G q.b.@.<.#.v C | *.5.=.G : 4.",
"i.t.{ >.4.@.y.t.C H F.M.O.l.O.$.#.#.e.v G y M.^ 3.] 6.6.x.:.z.z.3 f =.W X.,.6.,.8.k.} $.l.c.i.Z.l.Q $.m.$.O.@.M v | *.5.-.R 1 / ",
"i.w.w.@.4.| t.p.L d M.M.y.4.<.4.o.3.3.h 5.A *.^ :.` :.0.x.3.8.g.* l #.W <...2.X.o.t.,.M.J.A.s.s.b.) Z w.l.@.T 1 k W =.5.5. .6 A ",
"a.w.w.@.4.@.w.d.J < u.l.m.@.4.,.#.y.R 6 f.! D *.:...:.0.k.6.*.o.* F +.W 6.] 7.X.k.7.] A.J.x.9.D.<.J < Q h.O.T y j T *.4.5. .7 h ",
"u.<.8.#.o.[ 4.y.| < c.U.t.4.4.o.4.H #./ ^ %.F ^  .X.:.6.x.x...k * Y ~ | ,.X.,.1.7.l.,.U R.C.9.D.a.T < u.4.$.Q 6 q W *.g.+.*.k 5 ",
"t.<.8.#.] [ 7.w.#.8 y.I.7.t.#.#.8.C $. .*./  .P 3.....x.0.x.7.k $ S ^  .<...;.1.1.i.<.K Z.J.0.s.S.t.I @.w.$.T 6 k R ~ g.-.-.h 5 ",
"4.3.4.3.J [ <.<.t.d { S.o.i.} o.7.L K y. . .5.U 3.:...x.3.x.v.c # x ~ &.<...X.9.3.i.0.H 1.R.C.s.d.m.7.Z y.$.T 0 v ^ ^ q.e.5.k > ",
"3.4.4.3.C [ 4.<.p.I n m.X.3.X...#.o.e e. .+.5.^ :.6...x.:.0.F.D # g R *.4.{ ;.8.<.8.v.U I J.Z.C.@.w.b.V <.=.~ t j +._ &.5.g.F > ",
"o.3.3.3.C X.<.<.a.<.w s.,.o.3.} X.4.c R f./ 5.^ ] k.:.0.6.8.v.( ; y P *.4.o.X.8.,.o.k.| m A.C.C.<.#.M.[ } *.| y z / Y _ r.j.Q , ",
" .*.3.#.] | <.w.p.l.i t.0.} 0...] 8.p M 5.%.*.*.] 0.6.0.8.6.c.*.3 r R #.,.#.;.6.,.X.4.*.K J.v.s.i...v.,.U  .O.u z a 6 ^ h.h.) 1 ",
"} *.3.o.#.X.@.w.w.i.H :.x...9.:.] #.c b / f.o.%.` o.0.6.7.:.l.o.3 y / *.@.,.o.3.$.#.#.y.L F.A.p.7...p.,.U ^ @.g M 6 , ) h.r.&.t ",
"! o.*.| t.| X.2.4.8.' ] x.:.6.1.o.W ^ q / O.o.P } K 0.7.6.o.c.^ 3 y  .=.o.#.X.<.o.3.o.8.n l.A.A.<.o.c.3.#.R  .t z j M q.r.r.h.u ",
"! ! 5. .| o.#.#.t.o.P } k.o.6.:.3.} o.2 W | C &.| J o.t.<.{ p.@.5 g R ~ *.7.| X.o.,.,.8.' v.C.v.i.] 7.4.4.+.A 0 N P ( %.n.f.n.g ",
"; k 5.:.} } o.4.8.#.D W p.:.0.:.] k.W P q | / 4.4.} I ,.2.E i.2.: g G  .#.4.o.| o.7.6.i.I v.A.A.k.] p.8.,.F p > l G -.-.h.h.f.S ",
"% k -. .X.} #.3.4.@.b F 8.6.0.:.U 4.4.] 0 c $.*.y.t.Z [ t.J <.t.2 y F =.#.=.#.] X.7.6.t.s 8.A.l.p.] k.y.3.b D g > & 7 y k R P k ",
"* A *.*.#...#.$.3.*.v C 3.6.0.6.3.I m.E e 8 | | y.k.E E s.' { i.j 5 W *.*.4.X.R | t.8.8.8 X.k.4.p.E k.8.@.D 4.%.h.P 3 > & 6 y y ",
"X f *.g.6.} #.<.4.w.b m 3.6.7.6.6.' 8.8.i C $.| $.y.>.H p.7.E p.T -  .o.4.4.o.] | k.y.y.8 ^ k.#.y.X.8.#.} D y.g.V.n.A ( R q 2 ; ",
"k e ! 8.7.! 3.3.r.y.c K 3.3.6.0.>.6.] 8.n I G.| $.2.7.C i.i.' p.$.1 ^ } 8.8.#.o.] i.5.#.2 L g.@.7.#.3.3.} D =.z.%.H.%.H.Y.=.*.#.",
"j.A k 6.8.` 8.#.g.y.k C 3.6.:.8...7.] ;.I m U.>.<.$.4.E d.d.' t.p.m V @.3.8.,.o.} 8.#.I 5 k e.+.4.6.@.y.| M  .V.%.T.| W g.5.z.E.",
"T.G G k.8.I 4.o.h.y.q A 5.7...6.1.1.:.,.H n y.a.4.,.2.#.S.d.@.>.m.| 0 4.#.3.#.| #.y. .v > y -.%.k.8.| l.o.p P U.R P.~ q +.e.4.m.",
"z.G ^ 4.<.[ >.@.w.n.t T #.8.] :.,.;.7.,.I H l.y.w.4.<.V >.m.w.{ k.z.K o.4.| 4.] | y.| 4.4 6 ~ %.p.k.#.k.4.C D H.=.e.h.h I y.y.G.",
"z.A W 3.<.[ @.w.$.y.a N #.5...] 6.;.,.8.] d #.l.t.4.,.V d E s.<.#.k.3.X.o.W ,.| W 5.} R h y F ~ k.#.k.W z.l.0 G.e.-.n./ #.g.y.F.",
"j.b W @.<.{ ' a.O./ u j 5.3.3.} <.,.X.t.,.n v @.y.w.e.@.d J S.4.| y.N.#.3.o.3.@.U t.$.k q 3 A e.| p.p.| W m.F 5.z.5.B.y.8.y.8.M.",
"5.b @.X.<.X.E u.w.T 0 M 5.o.,.:.X.6.} >.7.] 0 0 | / 4.t.L E m.b.T T W D $.} o.^ W *.y.A 5 > N z.8.4.^ y.| m D =.V.=.v.k.3.4.8.l.",
" .D 8.o.<.>.E $.m.O.t M | #.| ,.] 8.X.o.4.*.t : @ y 4.M.4.Q [ a.v 5 - q #.U #.} I D 5.4.l q t ( l.,.$.C g.} y *.H.4.g.p.o.4.8.p.",
"! K y.,.2.>.[ [ u.r.l f F 8. .,.] o.#.o.@.@.j 6 u $ > R N.N.u : 2 & - C y.^ #.| d p #.z.P y y P 3.y.k.I W U.K L G.5.y.l.,.y.y.i.",
"F C 4.7.>.@.O.Q $.b.T t C 8.o.6.o.} 3.} | %.L t N g , y B F , > % > h F  .^ } } b b *.y.+.y f P @.3.#.z.P y.F W F.e.4.l.4.y.8.x.",
"D c o.p.w.{ >.Q @.b./ u C #.U 7.4.| y.| | f.+.1 B ) T R Z F V 6 p N R h v / W $.O.| 4.=.n.C p h  .o.8.} 4.W h W B.4.,.l.8.6.8.A."
};
