/* XPM */
static char *Pictogrammers_Material_Alphabet_Alpha_n_circle_161686840684[] = {
/* columns rows colors chars-per-pixel */
"16 16 2 1 ",
"  c None",
". c black",
/* pixels */
"                ",
"       ..       ",
"    ........    ",
"   ..........   ",
"  ............  ",
"  ....  . ....  ",
"  ....  . ....  ",
" .....    ..... ",
" .....    ..... ",
"  .... .  ....  ",
"  .... .  ....  ",
"  ............  ",
"   ..........   ",
"    ........    ",
"       ..       ",
"                "
};
