/* XPM */
static char *north1686338613[] = {
/* columns rows colors chars-per-pixel */
"64 64 112 2 ",
"   c #221D1A",
".  c #24221C",
"X  c #29251E",
"o  c #272622",
"O  c #2A2622",
"+  c #2B2A25",
"@  c #2F2E29",
"#  c #322E2A",
"$  c #35322D",
"%  c #3A352E",
"&  c #3C382F",
"*  c #373531",
"=  c #3B3731",
"-  c #3C3A34",
";  c #3E3D3A",
":  c #413C35",
">  c #423E3A",
",  c #44423C",
"<  c #49453D",
"1  c #464541",
"2  c #4A4642",
"3  c #474945",
"4  c #4C4A44",
"5  c #4E4D49",
"6  c #524D46",
"7  c #524E4A",
"8  c #535046",
"9  c #55524C",
"0  c #59544C",
"q  c #5B584E",
"w  c #575651",
"e  c #595651",
"r  c #5D5A54",
"t  c #5E5C59",
"y  c #60564D",
"u  c #61584F",
"i  c #615C55",
"p  c #625E5A",
"a  c #646056",
"s  c #6B6157",
"d  c #64625C",
"f  c #6A645C",
"g  c #6A695E",
"h  c #73675E",
"j  c #666562",
"k  c #6A6662",
"l  c #6C6A64",
"z  c #6E6D69",
"x  c #736C64",
"c  c #796E65",
"v  c #716E6A",
"b  c #6F706A",
"n  c #747066",
"m  c #7A7066",
"M  c #74726C",
"N  c #7B746C",
"B  c #7D786E",
"V  c #767572",
"C  c #7A7672",
"Z  c #767872",
"A  c #7C7A74",
"S  c #7D7D7A",
"D  c #81776D",
"F  c #82796E",
"G  c #807771",
"H  c #837D74",
"J  c #897E74",
"K  c #827E79",
"L  c #887F78",
"P  c #7F807C",
"I  c #848076",
"U  c #898176",
"Y  c #85827C",
"T  c #8A857C",
"R  c #8D887E",
"E  c #90857C",
"W  c #90897F",
"Q  c #858581",
"!  c #8A8681",
"~  c #878883",
"^  c #8C8A84",
"/  c #878B88",
"(  c #8D8D89",
")  c #908581",
"_  c #928C84",
"`  c #988F86",
"'  c #928E89",
"]  c #8F908B",
"[  c #949087",
"{  c #999187",
"}  c #94928C",
"|  c #99948C",
" . c #959592",
".. c #999692",
"X. c #969894",
"o. c #9B9A95",
"O. c #979799",
"+. c #9D9C9A",
"@. c #A19C94",
"#. c #A19E9A",
"$. c #A4A097",
"%. c #A2A29D",
"&. c #A4A5A2",
"*. c #A9A5A2",
"=. c #AAAAA5",
"-. c #ADADAA",
";. c #B1AEA5",
":. c #B0ADA8",
">. c #B8AFAA",
",. c #AFB0AB",
"<. c #B1B0AC",
"1. c #B1B1B1",
/* pixels */
"^ ^ } { L N N A 8 > s R M N ^ l v C v w # X : 0 _ >.K 2 e v P O...` { ` ` ` _ ) W W { W n 9 T ! T T 8 g R R B B ^ } | S d v ' } ",
"} } } _ T ^ T S f , < q < < i 2 3 3 > * # , 5 > 7 e X > i z K #..._ T R ^ _ T L W W W R Z 0 ^ | H R a l ^ [ ^ [ ..o.~ d 9 r k v ",
"Y ! } | ' ' ' ( H 7 > 0 0 p H A Q Z Z b l Z Q l 1 t   1 z Q ..} _ _ ^ T W _ ) T W U U I A e ^ %.] | g l ] +. .] Y } P j z z l z ",
"M n I o.@.' ' } _ p 6 s B H { ..K V Z A l z S Z Q P ; 3 L ' @.' _ _ _ ) R ^ ) ` U I I I T r ^ <.%.%.b l ] +. .( ~ } ( P / / P V ",
"I n M [ +.o.} ) | l q n W R W { _ H H I V P ' / O.( ; * Z ' ' | } [ _ R T T T T I I F B ^ e ! -.+.&.Z l /  .o.X.( / / Q P / ( Q ",
"} ^ ! R [ o...( } n i I | W W _ W E T M z S / S Q  .5 # w L K ' [ R I Y R _ R I I P I P ^ 9 Y =.%.&.V j ( ] o.} ( Q ) / P / O.( ",
"{ | ..] ! } +. .| M a B W U U U U E ) G C ) ] Q ! ! 7 7 3 t z ! [ R Y T R ^ ^ T T P R B R 5 ~ %.&.&.V j ( } } Q ' ' O.' ' ' ( ( ",
"Y R [ | ....o.} X.P g U W E { { J F G Q ) O.' ( ) ) e 2 9 v O.V _ ( _ ^ I I I R T I R P Y 5 ^ &.o.%.A j ( ! ^ Q ! ' ) )  .' ) O.",
"^ R ] } ] ( ..X.o.I 0 U { J W { E E G J _ G v ' R { q 2 l C S v A n S I B x n B I I I n 9 o } o.o.&.j j X.~ ! H P P Y }  .( O. .",
"} ] } } ......] o.~ i _ _ J W ) _ J H J L G v v N H 0 M } o.#.-.} [ [ ..^ } [ } U o.%.;.( , Q +...+.p j ~ ~ ( ( Q ( /  . .}  . .",
"] ^ R / ( ..o. .+.Z r } ) H T _ _ H J L J T T k 8 M 7 l T o.} ' X.X.! R P ! Q ~ R [ R | %.p ~ *.@.Q 3 V Q Q C K ]  .( ..O.}  .} ",
"] ^ ( } ..+.#.o.+.Z d } I I ^ ) ) H J J J E _ N j N i Q ' ~ ( @...o. .] ..} ! ~ R ^ R [ ( 5 M } @.v - P ( ~ C Q  .] / } } ' } ] ",
"^ ] | X.....o...%.Q V _ B [ } I ` ^ L J H J J L k v r v C p v Q S V Z g A b A K P P I I l & 0 d p 2 2 ' +.~ S Y / / Q } ..} ` ) ",
"| } } ^ ~ } +.o.O.l v { T ) ) _ _ ` J G J D m L l j 1 2 e 7 e 7 9 < - + * + - , < @ & : : % < & $ > j  . .S A C Q / Q  .o.} } ' ",
"$.X.} ^ ( o.%.X.V 1 a W { T T { ) E J D F F G J o.V 3 v ) K G C n n n n d q 4 , q < q q u u f y e w j Q P Z S Q K Q ! } } ) ` ` ",
"] R ] } o.o.~ z 1 = h D E W T H L J F F J J J G / / p K ! ( ! K P I B I d M a w g g h a s s h h d 1 1 A ( ~ V M S Q P Y L J ) | ",
"} [ | [ | g %   5 w 9 I ~ T Y Y E J D D F J E E } P 5 ! +.' ! T R U R I R R w t n h c c h c c x m d 7 A ^ S K S ^ _ } P  .3 ; z ",
"8 q i < & X X - * $ 9 Y L ^ T ` U U H G H G J ) K Q 1 V  .( L ! R R R I R ^ j M I N D m c c c c c A 7 z Q V k e x A P b j 5 ; ; ",
"@ * $ & , 0 a b M 9 A R N ' T ^ I Y T I L K L ) K ] 3 A ' ) T ' ^ R R R Y ~ g Z U F D c c D D x c k e ( }  .Y O + + $ , @ 5 5 5 ",
"q l n I H _ } #.$.M b a r ! ! Y Y R ^ } ( ! ! ^ Q  .r ..#.( Q L ^ T ^ R R Y i n I F c c c D N x K A > z / ( A , 2 w k k 5 +.#.P ",
"l H T R N K ! ' [ n - . + < , , w w w r i e 9 7 - ; * ' } } } R T Q ) R R W a l U D m m m F H N k G 7 ^ *.' v f ~ Z S S z ( / ) ",
"_ ^ T Y I _ ' ^ P B - < r j z V / Y S P ! ! K K l w w O.} ^ [ R ' ^ ! I R R g l W I D m N H I F D l 2 Q  .Q k v ~ Y S t w Q K ) ",
"' _ _ ^ T Q ' ! Y ^ q d Y } ..o.( ! ! ! ( ) ) Y ( z v ' } } _ [ } ^ ! I R R u h E F F I H F H A T G 2 A +./ 7 v ] P Q C v ) K ..",
"' K Y H L L ' ! T [ q 3 j ( ^ C K S ! / ) T K K K l S ( o...R { ( ! ! Y U U i g U B F E W I B B p 4 > Q ' ' p p Q A S l e ! K ) ",
"Q T H D J G G L J E 0 a ' Q Q ! G L ) ) ( _ R S M a p ' ( R { U _ I R I h U < : 9 9 9 5 8 9 r p 5 t z 5 p 1 * i ~ Z P M 7 L B U ",
"c A D D J L J G L Y p A ..! ) T ) ! R ^ ~ ~ ~ ^ ! ^ l Y B I W E R Y R B n I 8 D R ~ R Y R ! ^ '  .] ( z v e > v Y Y P V 2 L ) U ",
"L ^ T H L ) G G J E N I | ' ..L R R T ! R Y _ } } _ t ! R R U W R R T B ) U y { R Y R Y Y ! ! ~ / / ' } ( v 1 k X.X.Q Z 5 K _ D ",
"( _ L L ) ` ` ' U U l S  .'  .^ ^ T Y ^ ^ ^ ^ } | ! r } o.R I I ..[ I B { c 8 W R ! ! ^ ^ } ^ ^ / Q ! ( ! A 2 l X./ P S 9 Y ' ` ",
"^ Y G H _ { ' ' W H r z o.~ S ( ! Y Y / ( ^ ^ _ L H e l V d n g w t 8 r r = 4 _ I Y Q T ! ^ ! ! ' ( Q Q P Q w M / Q P V 3 T ! ..",
"S K H Y _ _ ! ) W { f t ( } L Q ! Y Y Q ~ R ! ! ^ H 8 d ! Z R I ~ ..~ ( A 8 p } I Y ! ! ! ^ ( ^ K L K Q Q ] p z } / S e 3 ' H L ",
"l S L H L _ ' ( I ^ f 9 M / / ^ ! ! / Q ~ R R Y Y H = e %.( _ R ] o.' } Q v e I H Y ! ! Y Q ! ^ ` ^ ! ! / } j l / / d 2 2 ` J J ",
"z ! ! N c G L Q F a 2 3 t z Y +.~ (  .( ( ( ^ R U @.> 2 } ~ M P ^ } ~ S I K 5 Q I T ! Y L Y ! ^ ^ Q ^ ( ]  .j l Q ' p 2 > l c L ",
"g P P g r t j b d < 5 0 9 < 7 e 9 7 4 7 9 d 7 4 1 2 O - k f p i l l Z b Z r 7 P I R P Y P R U I R R P Y ( ' M l O./ k v 4 4 2 e ",
"W X.| ] / } +.+.} %.] l r e l c M A ! Y V M z v Q p 7 v f p m v b w r z A 7 3 S P P I W W R U I R R Y ] } ' M V ( ( K K i ! ' ' ",
"Y Y P P R ] } } ^ P Y Z z g ' O...' ..| } }  .#.&.&.( &...Q ' #.+.~ ^ } } w 4 P R P P Y Y P P I P R ] ] ' ( l j ~ ~ ! A t } ....",
"^ R P Y ] ] ] ] R X.Q j n r V ) L C L ! o.O.O.( O. .O.O./ ! O.Q ~ } } ^ ^ w 4 P I P P Y R P P I ~ | ] Y ! ( p 1 Q Q S 0 , L L ( ",
"R R P R R / / R / R / Y v 7 P o.G G _ T ' ( ( / ] ] / P } Q +.( ^ o.] ^ o.t 5 Y P n B B H I B I P P I ^ ..} 0 * M ' v % = ! ! ( ",
"P P R P Y Y R / X.} Y ] } - 4 C ) _ } Y ! ( ( ( ] O./ Q #.z S *.+.+. .&.*.3 $ l P Z Z n B H g B x P ( } R k - = 4 k 9 # 4 ! P ' ",
"P P P P P R ~ R } | X.] ! > > # - , 9 d V ) / ) ' P S / k 7 k v Z Z P ] P , , d b l N A Y M 8 i R { R n 4 , - 7 = > : 4 p L /  .",
"P I I P Y ^ ] P R X.X.X.+.1 2 4 3 1 > , = > * 2 t t # $ O , 2 $ - $ * * $ - d 5 q < 5 9 d 8 $ < q g 8 & % 0 9 e k d e e p Q +.' ",
"W R R R P R P P Y ( ..] ( - j Z M l d k j t ; $ 3 3 w d b P Q ( R P b b M V Z A d d b d = - 0 A P B I ..-.O.P  .*.O.Z 3 r H } T ",
"P P P R R W R R Y o...M 3 ; S Z z j r z M z 7 7 b M ~ ( R Y Q ( / Y P P Q Q ~ Y ] ( Y Z i 7 B { g P | o.&.&.&.1.O.-.] , < Y T I ",
"R R P P R R R ] ^ } ' I 9 l ( K A Y S V M M p l / P ~ ^ Y ! ~ ' ~ Y P Y ^ ! Q Q ~ } Y Y N < N A I a z } *.-.#.+.-.+.#.d < [ } | ",
"W $.@.X.X.W X.X.....+.' 5 w v Y ~ ~ P V S ( A ! o.~ R I I ! ! ~ ~ ~ R _ ' ' ^ ^ Y Q H S Z < Y } | W o.( S ( #.1.&.X.X.5 * } $.} ",
"a n g g P a g g t r 9 - $ 9 p k z M V v l k e ! ~ R [ R T T T ^ ^ ~ ^ ' ' _ _ ^ ^ I ! I S < z I 8 @ < l t 1 ; 1 ; 3 3   - 7 3 r ",
"& $ . & 8 , & . > k ~ ' ..O.' ..( ! ( } P k 5 ( Y P R R R ^ ! ! ^ T T T ^ ^ T Y ) K ! H I < 3 9 8 8 a w 1 w w 2 t w r k M * o 1 ",
"g q < n @.W P : o.o.( } #.*.#.&.+.Q S ( +. .j K @.^ R T T W T I ^ T T R _ ` R T } I I S Q r l S A M Y ( K K C S Q A Q / A M Q Q ",
"/ g < q P P g & Q ] Q } o.#.#.O.Q ( ( K } #.V ) [ T W R U R T ) E U Y R _ _ T Y Y T T I ^ d Z ] ^ B P Y ! ! Y ! ( ( ! P V P Q ~ ",
"P P q n [ ^ N < ^ ^ ( [ } X.X.O._ ^ T ! ( o.z G ' Q L U J U T U H Q L ^ _ _ J ) R U R A B a } ^ R U Y T ) ) R U } } ' Y K K L Y ",
"P P < n [ ^ p : ! ^ ] [ | +.+.+._ ^ Y Y ! ' p M | L L E J J T U T T N H L { ) L R R R I Y r N I A I I T T T ) ` ] ( ^ ! I Y Y L ",
"I U q P [ ^ 8 , } | | } } o.+.] } ^ Q ^ ^ ' p v T H H H F J L G I Y L { _ _ ^ ( I U B N g X - i A H I H U U L L ' ^ ! Y T Y Y U ",
"I R < P [ P > q } ( _ _ | o.+.O.' T Y ( ^ ( p v _ U L J U J J J J D D J K ^ T v N B M I A < x o.| _ T R _ ) Y H ' ! Y Y Y T T ) ",
"P I < U U g @ q @.} W [ | .. . .' Y ! ` ( ' k c ` { T L E E T U D W W N d C ' ^ R B n U I 0 I ^ { ^ R ) { ^ E L _ R R T I Y ^ ' ",
"U I < I R q * q ^ ^ W [ { ` } ' ` ^ ^ ..( ..z V ( ( Q L _ { _ _ W m s f L ` ..^ U B N U U q ^ I I I T E T I Y T _ [ R R I ! _ ' ",
"U I < I R a 8 8 i M R W [ [ | } ^ L ' ' ) } z v Y ( ) ^ | } T K s 9 q g U H G L U U T I W < I I Y Y R _ W L Y ) R [ R I P R ! ! ",
"U P < P R a a , 8 B | { W [ _ T ! Q _ } ! #.V V V Q / / ( S t 6 r N R H U H U E _ _ Y F | < P T I I I R W T U E R W R I I ! R P ",
"C d > C ~ ( G 6 P _ } ) _ _ / ~ W U T ` } ..v 4 5 1 j 5 9 $ , p r g l g B I N d n f l l 6 & Y P L G H Y T T E T U W U B A I ! ' ",
"m C r z } ..L > R R _ ` ` ' ~ ' _ T I T ! ' k 3 S  .,.5 t ! S M a N B N I ^ _ _ A A I Z I a l I L H L T T E ^ Y I R R Y H H K Y ",
"l c 6 x C 5 : 2 X._ R ^ ' ^ ^ } R _ T K Y } l 1 / O.,.w Z %.` | I R ^ T R [ [ | _ ^ Y N ] l z [ U Y T H H H H G Y I Y I A H H N ",
"s H : 2 3 < $ p | [ Y Y ^ ! ( o.^ } ^ ^ ( } p > Z &.o.> v ` ^ G I I I I ^ [ [ { } ^ H T Y 0 N Z Y T T T I G H I ~ ( Y Z G T H c ",
"c J : < j v > 4 T } } ~ ( (  ...} ] ^ ....Y 7 > / O./ 1 B S N G I I I U [ [ [ [ { T I R Q f ^ S G H T ^ ^ H H ^ ~  .! K _ L c C ",
"J i > q S 9 - 2 l ! o. ... ... .] } } } ' Q 9 > / ] X.* k ..T Y ^ | } [ R R ^ | { T T B _ C C L T ^ L ^ } T S T (  .~ L Q k p T ",
"0 2 < - , @ > 2 7 C } ..X.O...} Q X. .( ~ Y 7 ; X.~ X.3 a P A ^ I R [ R R T R [ T T T H ) p 7 k e 9 > % < 4 > , 2 > - - - # : 7 ",
"N K ( Y N Z N q > k ~ ] ]  .} }  .( ! +.' l $ ; Z #.,.5 3 M } T I [ [ ^ R [ R I L E H T ^ e A ..S N 7 ; e x k d q 7 e l z ! O.' "
};
