/* XPM */
static char *south1686338613[] = {
/* columns rows colors chars-per-pixel */
"64 64 202 2 ",
"   c #2C1C06",
".  c #2D1D09",
"X  c #2C200D",
"o  c #33240D",
"O  c #3A280D",
"+  c #2E2312",
"@  c #2F2815",
"#  c #332614",
"$  c #352916",
"%  c #3A2A14",
"&  c #362B1A",
"*  c #3A2D1C",
"=  c #362619",
"-  c #3E3016",
";  c #3C301D",
":  c #3C2F21",
">  c #3D3222",
",  c #3F372A",
"<  c #462B0C",
"1  c #4F330E",
"2  c #402F1D",
"3  c #403017",
"4  c #4D3112",
"5  c #43331D",
"6  c #4B361E",
"7  c #4D3A1C",
"8  c #543B1A",
"9  c #553715",
"0  c #433523",
"q  c #453825",
"w  c #4C3B24",
"e  c #443B2C",
"r  c #4B3D2B",
"t  c #463726",
"y  c #513D24",
"u  c #503E28",
"i  c #463E32",
"p  c #493F32",
"a  c #4C412E",
"s  c #4E4026",
"d  c #524023",
"f  c #5A4425",
"g  c #52432D",
"h  c #5B462B",
"j  c #5C4A2C",
"k  c #464032",
"l  c #4B4335",
"z  c #4D4539",
"x  c #4F4839",
"c  c #534633",
"v  c #564935",
"b  c #5A4B35",
"n  c #51473A",
"m  c #544A3B",
"M  c #5A4D3B",
"N  c #5C503D",
"B  c #654C2D",
"V  c #694A28",
"C  c #75542D",
"Z  c #79582D",
"A  c #674F31",
"S  c #675131",
"D  c #6C5434",
"F  c #675831",
"G  c #61523D",
"H  c #6C5739",
"J  c #6D5A3B",
"K  c #725433",
"L  c #765833",
"P  c #7B5A33",
"I  c #735D3C",
"U  c #7B5E3C",
"Y  c #7D623F",
"T  c #71613F",
"R  c #554C41",
"E  c #5A4E41",
"W  c #575040",
"Q  c #5D5142",
"!  c #5E5448",
"~  c #625444",
"^  c #665945",
"/  c #625649",
"(  c #665A4B",
")  c #6A5E4D",
"_  c #6E5D41",
"`  c #725E42",
"'  c #695D51",
"]  c #766242",
"[  c #7C6444",
"{  c #7C6748",
"}  c #7D6A4B",
"|  c #7C6847",
" . c #7F6E50",
".. c #766D50",
"X. c #797053",
"o. c #816135",
"O. c #84633A",
"+. c #88683F",
"@. c #826543",
"#. c #886746",
"$. c #836946",
"%. c #8C6C43",
"&. c #836C4C",
"*. c #8B6D4B",
"=. c #836648",
"-. c #906F4C",
";. c #8F7042",
":. c #85704E",
">. c #8E714E",
",. c #92744C",
"<. c #9D7B4E",
"1. c #967546",
"2. c #816F51",
"3. c #8A6F51",
"4. c #857251",
"5. c #8B7453",
"6. c #8B7857",
"7. c #82775A",
"8. c #8E7758",
"9. c #84795C",
"0. c #8D7A5A",
"q. c #937653",
"w. c #937855",
"e. c #997B55",
"r. c #937C5B",
"t. c #9B7E5B",
"y. c #A17F52",
"u. c #997F61",
"i. c #9A805B",
"p. c #998159",
"a. c #A28256",
"s. c #A4845A",
"d. c #AA8A5E",
"f. c #A8875C",
"g. c #958464",
"h. c #9B8565",
"j. c #978866",
"k. c #9B8965",
"l. c #978668",
"z. c #988769",
"x. c #96896C",
"c. c #9C8B6C",
"v. c #9F906F",
"b. c #958E71",
"n. c #9D8E71",
"m. c #969175",
"M. c #9E9173",
"N. c #9E967A",
"B. c #979378",
"V. c #A38663",
"C. c #A18E64",
"Z. c #AE8E63",
"A. c #A18E6E",
"S. c #AB8E69",
"D. c #A2906F",
"F. c #AC926D",
"G. c #B29366",
"H. c #B79967",
"J. c #B2936C",
"K. c #B7996B",
"L. c #BA9B6D",
"P. c #A28E71",
"I. c #A88F70",
"U. c #A49273",
"Y. c #AB9575",
"T. c #AD9876",
"R. c #A49579",
"E. c #AB9679",
"W. c #AD9979",
"Q. c #A2997C",
"!. c #B49773",
"~. c #B29976",
"^. c #BC9D72",
"/. c #B19779",
"(. c #B49C7B",
"). c #B99E7C",
"_. c #BFA16F",
"`. c #BEA074",
"'. c #B7A07E",
"]. c #BAA17E",
"[. c #C09F72",
"{. c #C2A375",
"}. c #C3A47B",
"|. c #C7A87C",
" X c #C9AA7E",
".X c #B79E80",
"XX c #B99F80",
"oX c #B6A180",
"OX c #BCA382",
"+X c #BFA888",
"@X c #BFA984",
"#X c #C1A583",
"$X c #C5A985",
"%X c #C9AB84",
"&X c #C6AB8A",
"*X c #CBAC89",
"=X c #C2A789",
"-X c #CDB28D",
";X c #D1B38D",
":X c #D0B185",
">X c #CCB492",
",X c #D2B593",
/* pixels */
"$ q & > * ; > * & * > * ; & * o 4 3.=.[ ` ` J J T >.>.>.*.>.!.V.5 n , q , * * @ @ @ : > e 0 & * 7 g.4.&.&.4.5.3.$.4.5.4.w.g.h.| ",
"; N n m M m x m m M N Q ~ ( ^ * D #X+X(.Y.E.E.U.(.#X].#XOX).$XF.u ~ n M W R R x c m z n M Q e & ] +XT.T.Y.T./.W.(.(.E.U.E.Y.W.i.",
"% r l l l p l l m n M M v v b # S W.Y.U.M.N.M.R.E.(.(.].oX(.).i.2 n n l z z k l p l e i i m e @ I (.U.D.D.A.A.P.Y.P.c.U.U.c.c.7.",
"; l n z l z m R M E M m g b G % B ~.Y.U.U.U.U.U.U.Y.T.T.(.~.(.i.2 m m x x z z z n p p p k l m > J /.U.Y.D.A.P.U.M.M.M.n.U.c.c.&.",
"% l R z z l n E M N v c c c b - A /.U.U.U.U.n.M.U.U.U.U.W.(.(.r.2 R z x n R R m R z n z m l E > J W.U.D.A.U.M.U.U.U.c.x.x.c.A.$.",
"% c z z z z m M M v c b b s v 5 D T.U.U.U.Y.U.Y.M.U.U.M.W.W.].r.0 E R n W E Q R E R R E E E ~ r H Y.U.D.x.U.P.U.U.v.c.j.c.x.D.:.",
"* l i l p m ~ b c c g s v b G 5 S T.R.U.n.U.U.M.M.U.U.Y.R.U.).w.5 N E M Q E / Q E ~ E E M M ~ r I W.U.U.n.U.M.U.U.M.M.v.v.x.c.:.",
"# c p l l m E c v g v v g v b 3 T Y.x.n.n.P.c.M.M.Y.Y.W.E.U.(.,.5 ~ / N b ~ M N E ~ M E M R Q c [ /.P.A.A.P.n.U.M.U.M.x.x.l.c. .",
"% a k l z n c b a v c c v g v s T U.c.P.P.n.M.c.A.D.W./.Y.Y.).,.6 b E M M M M E N b M Q N v N g Y T.c.D.A.U.c.v.P.U.M.m.c.x.c.:.",
"$ l e i p b v v M c g N N j v g ] U.j.x.n.M.U.U.U.U.Y.T.P.Y.(.q.3 j M b N N M v M v b v v v N r U (.Y.A.A.D.U.U.D.U.v.c.c.x.c.} ",
"& c r k l E b c j v c c v j v s &.E.x.x.c.M.M.U.M.U.A.U.T./.).*.% v b v v b v v c m b m v v N w U (.T.Y./.T.Y.c.c.D.U.D.c.g.c.:.",
"= r l n m M m v b N N c c v v s &.R.x.b.b.x.x.n.n.n.A.P.E.(.~.*.O j E b v v v n v v b v b b b t U ).(.].oX/.E.T.A.A.D.c.v.k.c.4.",
"& c n m E Q E M N b M b v g v a { U.b.B.B.b.b.x.x.x.l.l.c.T.(.5.% u c c c c c b v v m c v b G t Y OX].(.T.T.T.~.A.A.A.A.A.h.k.:.",
"= c R m M Q Q M N N M v x v v a 2.N.b.b.B.B.b.b.x.l.j.l.k.U.oXe.% r j c c c c b c v b v b M M 5 [ #X).).~.~.~.T.P.U.Y.Y.U.A.A.4.",
"* c M E ~ ^ ^ Q N N N N N v b v 6.E.n.R.B.N.oXB.U.c.c.c.P.U.XXu.% g b b b b b v b v b b G b G 6 U #X}.].).].OX#X/.T.Y.~.]./.T.4.",
"  * * * 0 ; ; ; - s b v g j j s [ h.9.9.9.9.9.X. .] F F I ` [ V   3 5 % 5 d s c g 6 3 3 * O 3 o < $.#.#.*.$.,.*.$.$.$.$.$.O.Y 8 ",
"B H D S A [ [ ] [ 5.g.g.g.r.l.G M R z z m l v v m v t t l t w % *.t.e.q.5.w.6.0.5.:.$.#.&.| F . : q > > > p p e t 0 t 0 , , # . ",
"q.h.h.P.Y.W./.Y./.E.U.U.A.A.U.` n n R z n x l c M M ^ ~ / ( G b *X;X*X$XOX(.Y.T.(.@X&X#X.X'.i.0 c W n n n m n v R m m m R E a 0 ",
"*.I.Y.Y.U.D.U.D.T.I.A.A.A.C.P.J p R z z l l l z p l a m R R l u [.=X#X).].Y.A.A.W.(.].]./.Y.h.2 q l e e l k , i p p l i p x q * ",
"&.U.U.P.D.W.(.T.T.U.A.A.A.A.U.J z z z k p l z n l l l x z Q r u !.*X#X].).~.T.T.(.(.OX$X).Y.C.w , x i p R z p i p p z p l v t 5 ",
"p.U.M.U./.(./.T.(.Y.A.U.P.A.U._ k x x x z z z z l v ( x l Q w y !.*XOXXX).(././.(.OX#X#XXX/.k.7 , l p i i i i p k k l l l x r 5 ",
"l.M.U.U.T.Y.P.E.~.P.A.U.Y.P.U.J k l x x z z l l l m ^ c l m w y J.%X#XXXoX/.(..X).OX].].OXXXC.y e l p l i i p p z p l l l m a w ",
"c.U.U.P.U.U.Y.A.Y.Y.A.A.D.F.U.J x R n n z z l l k x l k n n r y J.$X#X).oXT.T.~.'.~.OX].XX(.h.7 e z p l k k k p l l l l l x r w ",
"h.Y.R.R.U.v.Y.U.U.U.A.U.Y.A.P.` E Q W R n x z z z l l z R ! t w J.%X#X#XoX/.T.~.~.T.'.).T.~.C.7 i z z l l p l l z p l z z v q 0 ",
"i.Y.U.U.U.U.U.U.U.A.A.P.A.V.U.` R W Q Q M n x x z z R l n E u w J.*XXX#X].).~.(.Y.T.(.~.Y./.A.7 k M n n z l l l R p l z p m q 0 ",
"g.E.Y.U.R.U.U.M.c.U.P.A.A.P.E.H N W Q Q E R M x x x x x R E n u J.#X+X#X#XOX/.U./.E.Y.F.A.Y.h.y i R n l x m x z k p z z z z 0 * ",
"5.A.c.x.c.M.M.c.x.c.P.U.A.h.U.H M M M E E ~ Q Q R R z n m ! u w S.#XXXXX'.'.W.E.Y.A.A.k.h.D.c.7 p m c x n m M R R z z z k x > ; ",
"S g.U.U.U.M.c.x.x.x.A.U.A.U.Y.S M b v M E / E E W R R m m / c u S.XX/./.(.(.W.Y.U.P.D.v.c.c.h.y l m x m m m n R z z z z l x 0 % ",
"&.Y.Y.c.c.n.c.g.c.z.A.U.c.U.D.f c b M v v Q Q Q W E R m m ) u u F.(.Y.W.'..XW.Y.Y.P.c.c.v.j.g.d e x l z x R x x R x x z z R , > ",
"&.A.Y.c.l.g.j.l.x.l.c.A.h.A.k.8 g G G b v N Q W ~ E E m M ' c w A.Y.Y.T.(.(.E.W.Y.P.U.c.x.v.D.w i M z z x x R x z x z l k R , , ",
"5.A.A.Y.Y.U.c.U.c.c.U.U.A.E.c.d v G _ b N ~ ~ Q ~ Q E E W / c y F.Y.Y.Y.(.).).~.(.T.(.(.(.T./.h l N x m m M W m R n m W x N k q ",
"A I D ] } } } &.J I } 4.I I J O 3 5 5 3 5 6 ; 5 * : * * * > & O I ] | I U Y [ =.Y &.$.*.h.&.T % $ & # & & & & * * ; ; & @ ; @ @ ",
"0 > * & & > & * ; ; e s e > & + D &.] ] [ { } &.=.&.3.=.` =.r.V g h g c 0 5 2 * 2 3 3 6 0 0 0 . f &.I J J ` } 6. .} X.X...| 4.7 ",
"m W m R m M n m x l k k k l l ; h.+XW.W.E.W..XOX+X+X+XOX+X+X>X5.b N b G G G G G G ^ G G G ) Q : r..XY.Y.U.M.c.U.U.B.N.N.R.U.W.] ",
"e l k z x k k p i l , > , k a & 8.W.U.U.M.U.T.(.(././.(.(.).&X=.g c c g j v b v M v b v b ~ c # &.Y.n.P.l.l.i.g.g.x.b.x.x.l.Y.] ",
"k x z z z z p l i e e , k e s ; 0.W.U.U.U.Y.(.oXOX(.(.XXoXXX-X-.c v v c c c v b M v M M M Q c : 2.E.A.z.l.g.l.x.g.j.x.x.x.c.Q.} ",
"k x x l z x l l z l , , i , l 5 0.E.n.U.R.E.'.oXOX.X(.oX+X+X;Xq.c b c n c c v b M b N b m ~ c & &.Y.c.z.l.z.l.g.x.x.l.z.c.c.W.I ",
"r m e m R l z l l k k k , i l ; r.Y.M.U.M.Y.(.'.OX(.(.OX#X$X-X*.c M c b n b v n v v b M M / b & } U.n.x.x.x.x.z.h.z.z.A.U.c.T.D ",
"e c e n R k k z k e k i i p a 5 r.Y.U.Y.U.Y.(.'.oX.X.XXX#X#X%Xo.b M c b v b v v c b v M ~ ~ b : } U.c.c.z.z.l.h.k.c.P.P.U.Y.OX[ ",
"> x l i k z z x x i e i p l c t i.Y.M.U.U.R.(./.Y.E.W.(.OXXX$XU b M M b c c c v c b c v G Q b 2 4.Y.l.l.c.A.x.c.c.P.P.P.D.T.#X@.",
"p c r p p l k x k p i i k z R u w.(.U.Y.U.E.E.Y.U.P.R.E.(.oX=X=.M E b m b b n v c b h c n b M t 5.D.x.x.z.x.P.x.M.U.n.U.U.T.=X[ ",
"r n l p p i i k e e i k i z m g V.oXY.Y.R.U.Y.M.U.n.M.R.(.OX%XU c M M b v v v v v c c c M m Q w 5.U.n.n.x.z.n.n.c.c.P.W.].].*X#.",
"0 l l p i k i k q i i k , k c s F.oXY.Y.R.Y.U.U.U.n.M.U.T.(.#XL w G v b m v b b v c c a n u m 2 0.U.l.x.x.c.U.U.U.U.R.oXOX#X-X%.",
"p m l l l p p l l p i k k k z w F.'.U.D.U.M.M.U.U.n.n.U./.#X#XK 0 G c b b M m b m c c c c n n 2 w.D.z.c.A.A.U.U.U.U.W.OX$X}.|.o.",
"a m l l i p p l l k i e e p l ; r.U.v.v.M.M.U.R.U.U.n.U.E.#X$XV 5 G v M M M M b M v j c l n c 0 6.Y.c.c.A.A.D.Y.U.Y.'.]. X^.{.%.",
"0 c c l a x n m z z p i e p e % 8.D.k.c.n.n.n.R.U.R.M.P.T.#X#XK t N c m m M M N b b c c n M r % e.~.A.c.A.A.A.U.Y.Y.].].K.G.{.+.",
"e M c c c n m b v m x l l l l * A.(.U.D.U.Y.E.W.(.W.U.E.).&X&XU g G b M N ~ ~ ^ ~ b M G Q M c * V.OXY.Y.Y.Y.Y.Y.T.'.:X|.{.|.|.L ",
"@ & + X + & = & % = # % + + % X K [ I I I ] U | &.0.0.r.8.5.*.4 % w g j h a w w c h g t t 0 = . Z q.@.I I I ] } } i.d.+.+.+.+.1 ",
"f I I I O.@.@.-.#.o.o.O.O.+.%.9 & r * e r 0 > l M M Q v m l c # B h.S.J.d.y.f.f.a.f.s.a.a.>.,.9 X q = & & & ; , > q 0 * ; > 0 # ",
"5.E.(.#X*X=X%X#X%X X}.[.}.|.S.U p ' Q ~ ~ / / ( M M Q n R m E : V.-X%X}.|.{.|.|.}.{.$X|.}. X;XL t Q n m W N N M W N M E Q ~ ~ * ",
"] V.Y./.#X#X$X#X[.#X#X#X}.%XJ.A : E z n z M m m W n n x z p l & S.}.K.K.K.L.L.L.L.^.^.K.`.Z.Z.Z & z k z z z z z z z k l x R z # ",
"[ A.F.Y.(.[.#X$XXXXX#X&X#X#X#XA e E n n m m M R R z z z p i r & K.{.L.[.L.K.K.[.L.^.^.L.L._.{.Z : R p l l l m z z x z z x x n * ",
"&.Y.T.~.~.).OX).E.oXoXoX).(.).B 0 ~ m R m E R R x z z x l k a % s.{.L.L.L.L.K.L.L.K.L.L.^.[.{.Z & x k z z z z z m l z R z n R & ",
"5.).~.(.).(.OXY.P.Y.E.E./.).A.h : Q n m n R R m R x z z k k r # <.[.[.K.L.L.L.K.K.^.^.L.L.K.[.Z > n l z x l x n z l n n x n M ; ",
"V.oX(.).oX].oXY.U.M.U.E.E.'.F.h > W n R M n n R R n x R x z l % y.[.L.[.L.K.L.K.K.^.L.K.^.L.^.P > R z z l l x z n m z z x l v e ",
"/./.(.~.(.XXT.P.R.U.U.U.E./.Y.h > ! x x m m x R x z z x z z l $ 1.{.L.K.L.K.^.[.L.^.[.L.L.[.{.P * W z z z z z l n z z x z l m r ",
"W.Y.Y.P.U.U.A.U.U.M.n.P.P.W.U.j * E m m m n M z z m m z z p u = <.[.L.^.K.^.L.^.L.{.^.^.`._.L.Z & R R z l l l z z z l z z k z e ",
"A.P.A.A.A.U.P.P.c.n.n.M.P.E.U.B : ~ m M n n m m n z x z z m m % 1.|.^.L.L.L.[.^.^.`.`.^.`.L.^.C * R p l l l l l z z c l l p l e ",
"A.U.c.n.A.c.c.c.c.g.n.M.D.Y.W.h : / R R M n n n n n z l z z c = e. XJ.^.[.L.^.^.^.^.`.`.`.`.`.C : m l z l z l z z x x l k p c r ",
"U.c.c.A.x.g.g.x.c.U.l.c.v.T.Y.B 2 ~ M M E m c n z m z l p z E t 1. X[.^.L.K.^.L.L.L.`.`.`.L.`.L > R l z l k l z x n l l k p z q ",
"M.c.n.x.l.z.g.c.A.c.n.c.A.D./.K 0 ~ M m M m n n n m m x p p M r ^. X^.^.L.L.L.L._.{.K.K.[.L.}.%.: M z z p l z z z n n z z z z i ",
"h.A.A.h.h.x.x.c.c.h.P.I.Y.F.~.D : ~ E M E Q M M M m v n p p m u !. X).^.L.^.{.[._.{.{.{.{.L. X%.: n k z z l l z z z n l k k z q ",
"D.E.A.c.U.c.P.U.P.E.A.I.(.[.V.K t ~ G Q G E b M E ~ ~ E E R E y J.[.{.|. XL.S.S.J.J.G.G.d.G.:X1.q Q x x l n x n m m m n m x x e ",
"5.i.} $.6.&.5.0.6.&.@.` @.$.@.< # t = = * * & & * 2 0 t t r u 2 %.Z.s.y.-.o.P P C P P +.o.;.G.V # t & = & * & * & * & * e r a ; "
};
