/* XPM */
static char *_e5371f259af451cd89d7c54d7a8fd1165Ph4XU5oiolZ0IU[] = {
/* columns rows colors chars-per-pixel */
"128 128 79 1 ",
"  c gray9",
". c #1A1A1A",
"X c #221F1F",
"o c #23201F",
"O c #1C1F25",
"+ c #211F20",
"@ c #1D2027",
"# c #1D2128",
"$ c #232223",
"% c #292526",
"& c #2C2827",
"* c #24252B",
"= c #292629",
"- c #26292D",
"; c #2D2D2D",
": c #322E2D",
"> c #35302F",
", c #272930",
"< c #2D2E33",
"1 c #302F31",
"2 c #2E3036",
"3 c #2E323D",
"4 c #333334",
"5 c #3A3535",
"6 c #3C3837",
"7 c #34353C",
"8 c #393739",
"9 c #37383F",
"0 c #3B3B3B",
"q c #413836",
"w c #423D3D",
"e c #483F3D",
"r c #46403F",
"t c #49403F",
"y c #2F3341",
"u c #323641",
"i c #363942",
"p c #3B3C43",
"a c #3E3F48",
"s c #413E41",
"d c #3F4046",
"f c #3F4048",
"g c #434343",
"h c #4A4545",
"j c #4E4946",
"k c #45454B",
"l c #49464A",
"z c #47484E",
"x c #4B4A4C",
"c c #504745",
"v c #514947",
"b c #524C4D",
"n c #584E4D",
"m c #56504F",
"M c #59504E",
"N c #4D4C51",
"B c #514E52",
"V c #545254",
"C c #5B5354",
"Z c #5F5857",
"A c #565458",
"S c #595659",
"D c #5D5A5C",
"F c #615755",
"G c #615857",
"H c #635C5C",
"J c #685F5E",
"K c #67605F",
"L c #69605F",
"P c #5F5D60",
"I c #615E61",
"U c #656264",
"Y c #6A6465",
"T c #6A6668",
"R c #6D696A",
"E c #706767",
"W c #716B6C",
"Q c gray46",
"! c #7B7B7B",
/* pixels */
"$;1;1;;;;;;;;;;;;;;;44;;;;4;;4;;;;4;;;;;;;;;4;;4;;4;4;4;4;44;;44;;;;;;44;;44;4;;;;4;4;4;;4;4;4;4;;4;;4;;4;;;;;;;;;;;;;;;;;;;;;;o",
";gggggggggxgggggggggggggggggggggxrggggxxgggxxggggggggggggxgggggxgggggggggggggggggggggggggggggxggggggggggggggggggggggggggggggggg;",
"2ggggggggggggggggggggggggggggxggrddggggrgggggggggggggggxggxgjjgggxggxgxgggggggggxgggggggggggggggggggggggggggggggggggggggggggggg;",
":ggggghgggggggggggggggggggggggggxggxdxrdxggggxggxgggggggxggxggggggggggggggxgxgxgxrdxxgxggggggggggxxggggggggggggxggggggggggggggg;",
"4ggrhggggxggdrggggggggggggggggggxrxgzghkggggggggggxgggggxggggxgxgxxgggxgxggggxgggrdrxgxggggxggxgxggggggggggjggggggggggggggggggg;",
";ggzggggggggxggggggggggxggxggggxgggggzgggggggxgggggggjgjggxgggggggggggggggjgggggxdxggggxxgggxgggggggxgggggggggggggggggggggggggg;",
"4ggggzggggggggggggggggggggggggggxgxghggggxgggggggggggggggxgxggxgggggxgggggxgggxggrjgggggggggggxggggggggggggggggggxggxgggggggggg;",
";gggggggxdrggggggxgggggggggxgggggggggghggggggggxgggggggxgggggxgxxgxggggxgxgggxggxgdggxhzxggxgggggggjggggggggggggggggggggggggggg;",
";gxgdxgggggggrdggggggggggjxggggxgggggggggkgggkgggggggggggxxgxggxgjggggggggxggxgggghggggggxgxgggzxgggggggggggggggggggggggggggggg;",
";gggrgggggrgggxgggggxggggggggggggghggkgggghggggggxgggxgggrggrxdrxgggggxgxgggggxggggkgzhgggggxhzgggggxggggggggggggggggggg0gggggg;",
"4gggggggggxrjjggrxjxrjjjjjxggjjjlhhhjhhhjhljjhhhjxxxtxxrxgxjxtxrgjxgxxgxgjgjjgjgjhkhxgjgxgggggggggxgggggggggggggggggggggggggggg;",
";ggggggggxrxvtjjjtjtjjjtjjjjjjjjvjvvjjjjjxjvvjcvjjjjjjxxjjjjjjtxjjjjjjxzjjjjjmjjjjjjjjjjjjhxggggggggggggggggggggggggggggggggggg;",
";grdxggggrtmmxBbmmxmmBmBmxxVmmmxbBnNbbbbmbmbBBbBmxVVxVVxmmVVxNVNmVVxVVxVxVVxVxVmNxbxmNNNBxzhgggggggxggggggggggggggggggggggggggg;",
";ggxggggxrtVVVVVVVVVVVVVVSSAZVVSAACVAAACAAAASSACZVAAVVASSVSSAAAAVSVVAAAAAAAAVDVVAAAAVVVAVVxgghgxgxgggggggggggggggggggg0gggggggg;",
";ggggrdggtVmVxxxxxBxNNNNmxNNNxVxBNxNbNBBxBBNBNBNxxVxVNNNVxNNNNVNNNVVzVVxVxxVxzxVBNNNNNNNVVBgdgggggggggggggggggggggggggggggggggg;",
";gggggxg6jVVmg0797007777009990007i8999i99999899i00990999090i09i7099000iiiiiip0007i7i7iifVVVN7gggggggggggggggggggggggggggggggggg;",
"1ggggggg>NABzsp799997899998ii8ii899999iiiii89i8i999ii99i9999i9i999099ii90i9ipp09990990pfzBVN4khggggxggggggggggggggggggggggggggg;",
";ggkghgg>NAzkk8*#*##%%******************%****-*******-*********---#--**-#-#--##-#--#-#0fkNBN4gggggggggggggggggggggggggggggggggg;",
";gggggkg>bBzsa+O%$&$o&o&$%%%%%%%%%%&$=%&-&%=====*=====***-=---,-----$-*----------#---$$dkjVx3kgjxgggxgggggggggggggggggggggggggg;",
";ggghggg>NBNN,O%ooooooooXXX++XXXooXoX+++++++X$+++XX$++oooo@ooo##@o.$@Ooo$$$##$.$@$$o.$@-xNVN<gglgggggggggggggggg0g0ggg0gg0g0ggg;",
";ggggggg>bNNx-;:55qqqqqtqqqqeeeetttttjtjvcccvvcjjvjjzlljjljgffffgdgggg0000g0000064844-;&xmBN4hgz;4000g0ggg04ggg4;0000g0g0g04xgg;",
";ggggggg5bbNN,8:tttttttnvnnnnnCFFFFJHLLLIILEYEEEYTTTTTTTTUTUUPTIIDDDSVDVVVNxxzgzgzdgg40;jxBN2ggg40ggggggg0xggxg04ggggggg0gg0xgg;",
";gggshgl>NBNN-w5ttvtttntnMnFFFFFHJLLLYEEWWWWWWWWWWWWQRWWWRRRTTTTTUUIPDDDAAVNxVNxxxdgg4g;xmVN2dgh4ggg0400;;V0ggg40gg0400;;gg0xgg;",
";ggggggs>bBNx-s5tttnnnnnnnnnFFFFFJLLLLYYEEEEEWWWWWWWWWWWWRRRTTTUUUIIDDADAAVVVVNxxgxxg40;xBVN4ggg44;;0400;;Vgggg00;$g400;;xggggg;",
";gdrgdrg:bBNl,w1ttthcvcnnnnMFFCFGHHHLLLYEYYEEWWTWWWRWWRRRTTTTTUUIIIPDDDAAAVNVxxzxzggg4s:jNBB2gkz44$;0400;;Vgggg04$$g4004;xg0jgg4",
";ggggggg1bBNl-w5tecccccnnnMnMFFFGHFJLLLYYYEEYTEWRRWWTRWTTTTTTTUUUIIPDDAAAAVVVxxxxggkk4s:xBBN2ggx4;$;00004;Vgggg44$$0400;;xg0xgg;",
";ggrdrgg>bBNl,s5tttcccvvvnnnMFFCGGHHHKJKJYYYYWEERTWTWTTRTTTTUUUUIIPDDDAAAVVNVxxzxgxdg4s:bbBB2hgh0;;;0000;;Vgggg04$$g4g04;xg0ggg4",
";ggdrdrd>xNNN,s1ttechccvvnnnMMMFFFHGHLJJLIYYYYTETRTRTTTTTUTUUUUUIPPDDAAAAVVNxxxxkxkgg4g&lNBN2ggl4;;;0000;;V0ggg04$$g4004;xg0xgg;",
";gggxggg>bBNN-w:ethtcccvvbnbMCCCFFHHHHHJJYYYEYYEYTTTTTTTTUUTUUPPIPPDADAAVVVNzNxzkgggg7g;lNBN2sgl4;$;040044Vgggg44$$g40g44xg0xgg4",
";ggggggg1vBNz-w5ettctcccvvbMMMMCCFZGHHHHJIJJIYYIYTYTTYUYTUUUUIIPPDDDAAAAVNVzNzxxxkggg2s&cbBz4sgg4;$;000g4;Vggxg04$$000g4;xg0xgg;",
";ggggggg1bBNz-w1eetthcccvnbnMMMCCCZZZHHHJHLUIYYYIYYUTTYUUUUUUPPPPDAAAAVVVVNVNNzzkggdg2d;lNBN3hgg0;$;00gg44Vgggg04$$g00g04xggggg4",
";ggggggg1bBNz-04eeehthjcvvvbmMMMCCZZZZHDHJJJYIIIYIYUUUIUUUUPUPPPDDDAAVVVNVNNzzxzkhkdd4r;lbBN3sgh444400g00;Vgggg44;404gg04xg0xgg;",
"4ggggggg4rNNf-g4ewessccccvvnnnBmCCCCZZZHHIIIIIIYYIYYUUIIUIIIPPPPPPAAAAAABNNNxxllkkgpa4w:xxVN4ggx4ggxg0g00;V0ggg00ggg00g0;gg0ggg4",
";ggggggg4VVxN-0;eweeecscccvbvbnmmCCFCZSGSHHHHHHIIIIIIIIIIIIIPAPAAAAAVANNBBNNxxkkggggg40&xNNV4ggr40gg00gg0;Vgggg40ggg4gg04xg0ggg4",
"4ggggggg>Vxxx-04weweeehchcvvbbnBmmCCZZCZGDHHIIIIIIIIIIIIPPPPPPPPAAAAVVNVNNNxxzkkksgas4s;xBVf2gdx404044004;0;ggg004g44gg444;0xgg;",
";ggggggg>tVxx;04wesescscclcbvbbbmmmCCSCZZSGDSHGHDHIPIIIHSPPSPAAADAAAANANNNxxkkkgkggdp20:jxAf4ggr40;;;4gg0;;$ggx00;;;;0g0;;;0ggg;",
";gxxgggg>xNNf-04qwweeehehhccbvvbBnmCCCCSCZZZGSISDDPHPPPPPSPAAPAAAAAfVNNVNxxzkgkkspgpd40&xxmx4ddx00$;;4gg4;;$gxg4g;;;;0g0;;;0xgg4",
"4grdgggg>xNNx-0:wwwsecshhhlcjbbbbBmmBCCCCSSSSHSHDDDDSSAPPSPAAAAAAAAAVNNNNNzxkkkgkagp020;xbBN4gxd40;;;40g4;;;gxg00;;;40g4;;;0xgg;",
";ggggggg>xNzx*04w0wwesshhhcclbjbvbbmCmCBACSSSZSHDDSPPSPASSPAAAAANAANBNNNzzzxkkkkggpss20;jNNx4dgg40;;;4gg4;;;ggx00;;;4gg0;;;4ggg;",
";ggggggg>xBxz*0:qqwweehsschhhvjxbbBbBBmCBACCSSSSDSSSSSAASSAAAAVVANANNNxNzxkkkgdgapgpp40;xNNN4ggd4g;;;4g04;;;ggg4g;;;40g0;;;0xgg4",
"<ggggggg>vBzz-q1wqwsweesshhchljjbbbbmBBBBCCAVCASAAAASAAAAAAAANANNNANNzNzzzzkgkgdspppp49:jxVx3grx40;;;4gg0;;;ggx00;;;4gg0;;$0ggg4",
":ggggggg4xBNz-818qq0wwesshshhjljlxbbbbbBVBVAVCCAAAAAAAAAANAAAANANNNNzNNzkzkkgkgdagg0048;xBBx2gdx00;;;4g04;;$ggg00;;;4000;;$0xgg;",
";ggggggg:xBzx-818wq0wwweceschlhllvbbbBbbbVBBVVAAVAAAVAVVNAANNNNNANNNNzzzzlkkkffdpappa<0:xxNN2ggg00;;;00g0;;$ggg4g;;;;0g4;;$4xgg;",
";ggggggg>bBzl-8:q8wwwwwssshscshhclxjxbbxbbbVbBBBVANAVVVVANANANNNNzNzzzzzkkkgfgddd00p918&xxVx2ggx40$;;4gg4;;$gxg00;;;4gg4;;$0xgg4",
";ggggggg1xBzl,810q0qw0wweshsghhhhlcjvxbbbBxNVBBVNNAAANANNNANNNNNNNNNzzzfkkfkgggpasppp<9:xmNx4ggg4g$;;40g0;;$ggg0g;;;40g0;;$0ggg4",
"2ggggggg>NNNz-81q8q08q0wesecheshslhlhllxxxbbxBBxNANNNNNANNNNNNNNNfNNzzzzkgkfapaap0p0010&xxNN4ggx40;;;0g04;;$ggg00;;;4gg0;;;4xgg;",
";ggggggg>bNll-8;q80qqwwwseesshshhshlhlxjjzxBBNxNNNNNNNNNNNNNNNNzNzNfzffzkkdgaagpppp9i18:xxNN2ggg0g;$;0gg0;;$ggx4g;;;40g0;;;4ggg;",
"1gggggsh:lNlz-7:58888w0wwsesshsghlshlllzjxxxxxbxNNNNNNNNNNNNNNzzzzzNfzzffkdddappp0pi0,8;xxNz2ggg40;;;40g0;;$ggx00$;;40g0;;;0xgg;",
";ggggggg>lbzs<5:58q8qqqswwswssheshlhlhllxllxxxNxxNzNNNNzzNzNzzzzfzzfffffzfddppp0p0i0i20;gxVx2ggx40;;;40g0;;;gxg40$;;40g0;;$0ggg;",
">ggggggg>lNzN,7;58558pq88wwsesssssshslkhslllllxzzxNzNlNzzzNzNzzzNffzffzfffdddppppiii0;4-gxxx2ggg40;;;4004;;;ggg0g;;$;0g0;;$0xgg;",
";ggggggg>lNzs,u:85588qp8wwwpswsshshhglglglhllllllNlzzzzlzzzzzNzzzfzffffffffdddppi000u;9;xxVz2ggx4ggVg0gg0;ggggg0ggxx00g0;gg0xgg;",
";ggggggg>lNzN,8:>88q888q80wwwssssssssshsklskllkllzllszlzzzkzszszfNffffffffdddd000iu39;3;xxxz2ggx40ggg0gg44xgggg40ggx0gg0;gg0xgg;",
";xggrggg:bxzl-7;455888q808swqswsssshkhsllglkskkzzNNsNNszzkkkzfzffzffffdddddpuiip0ii0024;gxNf7dgr40ggxggg04ggggg04ggV0gg04g00xgg4",
";drgdgdr:lNll-4;55458888q8qppsqssssssslsskslllkkzszzsNNszfkkfzffffffffdfdddpdupii0iuu;4-xxNx4ggx40gxg0gg0;gggxx04ggV0gg04gg0ggg4",
";gdggggg1bNlz,5&4585588q8spq0sspsssssssslskskskkaszzsNsNkzfffzffffffffffdudidpi0uuuuu;0-rVxx2gdd4;;0g0gg04ggggg0;;;x4gg04gg0xgg;",
";ggrgdrg1lNzk,7;1455588888qs88qswsssskssssskkkksszszzszszfzzffffffffffffdddiiiii0u00u;4;xxNx2drx4;4gg0gg04g0ggg4;40x0gg44gg0xgg;",
";ggggggg;xNxk,4;515855558qiqp8s8wwspqsssssskkskkzszzzkakakfffffffffydydydydiipi9iy030-4;zVxx0ggg4;00g0gg0;g0ggx0;40V00004g00xgg4",
";ggggggg:rxxl-4,1515545u8888q88s0ppwssassssassskzaaaskkafakaffaafffdddddydiiiiii0yy0i-4;zxxx4ggx4440ggg04;xgggg4440x0gg4;g00ggg4",
";ggggggg;xNxl,4;1851555588iqs8880s0wspsspsasssssaaassassfaaafaaaffdddyydduuuii9uy030i24;gxxx4ggg4;4gg0004;x0ggg4444x0004;gg0ggg;",
";ggggggg:xNxl-7->>1843558575888p88p80ps8p0paaaasaazsaaaaaaaaafiafyfydddydyduiu99y0yy3-4;gxxg4ggg0400g000;4x0ggx0;00x400;;gg0xgg;",
";ggggggg:xxzz-4&5144543455785888pqp0wpwp0sspsppsaassaasaaaaaaaaifffyddydidiii9iuyy030-4;xxxx4ggg0;00g000;;x0ggg4;04g0004;g00xgg4",
";ggggggg>zxzz-4;8115445545555788p88088ps8p8pppspaapasiiaaaiaaiaayfyfyddyiiiiii9u0yy0y-4;gxxx4ggg4;00g000;4xggxg0440g000;;g00ggg;",
";ggggggg:zxzz-2;11>144557577858788ips8p8sppsppppaappaaaaiaiaiaiiyffydydddyiiu9uu0yyyy-4;xxxz;ggg4;;00000;;x0ggg0;;4g4004;gg0ggg;",
";ggggggg:hxxk-4-115114444545575888888p8pi88p8p8piappaiiaaiaiaiiaffyddyyuduuiu9u7yy00y;4;zxxz4ggg440g0400;4ggggg400gg4004;gg0xgg;",
";gggggggyNBss,4=1211124>3535545u88888pi88pqiisisppppaiaiiaiaauauydyfyyddydyyy3d3u7u77-1&llNl<ggh400gdrgx00g0ggg000gggggg0g00ggg;",
";drggggg1sNNs,4;>>>317>5>5>55u557878888ii8pi8isippipiaiaaaiiiauafyfydyyyy3dyd3337u33u-3&hxNz2ggg;40000000004ggx4;0000g000000xgg;",
";ggggggg1sNsB,2=21>>513147445y458787878888i8issiiippiiaiiiiiiiuuyfyyfyyfyyy3uu3yu3373-7&slNl2gglgghgggggxggggxxgggggggggggggxgg;",
";ggggsgg1bNNs,4;11>111>4>13554y5787878i88i8i8iippiiiaiiiaiauaiaufyyfyydydyyduyyy7u337-3&llzz2ggkgggkxxgxggxxgggggxggxgggggggggg;",
";ggggggg>sCss3311111111>215>>5354818487888u88i88iip9iaiiuaiiiuauyyyydyyyuuuuuy7y3y377,4&llNsysggggggggggggggggggggggggggggggggg;",
";ggsggsg:sNBs,1+:1:11111>313354447477577777iiuii9989iiiiuiiiauuiyffyyyfydu7uyyyy77337,3&slBs2lggggggggrdggggggggggggggggggggggg;",
";rgsshssyNsNs32;1;<:11122>44244347877777778uu87ii7iiiiiiiiuaiiiiyyyyfyyyyy7yy33733333-3%clNz1ksggggggggdggggggggggggggggggggggg;",
";ggglsls1sBss*1;1<:<1112>17>25>54474474487788u8u99i9uiiuiiuyiiiuyffyyyfyyyyy7yyyu333u,3&sbzz2shgggggggxrggggggggggggggggggggggg;",
";dggrggr:sBNs,2+;::;1111141244224753553575y77uu879ii7iiiiuiuuuiuyyyyyfyyydyyy3y3y3333*4&dxNf4ggg04000gVVgggggggggggggggggggg0gg;",
";ggddggd>NsNs,1;;<1:1<1111243>2524>33433435y7477777iuuu7u7uiuuuuffyyyyyy33yyyyd33y33y*3=gxNN;ggg0o...o$;$$00gg0gggggggggggggggg;",
";ggrgggg1sBss,y,;<;=<<:<1121131>4444>345533y5777777ui7uuuiuuuuuuyyfyyyfydy3yyy33y3333,3&gxVf2gggx.$4;;;;;.40ggg00gg00gggggggggg;",
";gggggggysNNN,2+<:<<&:<<1<111>42342234233545y3377yu7uuu7uuiuuuuuyyyyyyyy3yyy33y3333y3*2%gxff2gggV-;VVVxg;o40gggggg0;$0xVxgggggg;",
"&ggggggg>sNss*1;<;<<:11<:<<12124>23>>2344343473737u777uuuuu3yuuuyfyyyyyyyyyyy3y3y33yy-2&hzxk;ddgD;;0gx00;$40gggg00;;gVxgxVg0ggg;",
";ggggggg5sNsz*<;=:=:;,<:<<1111<13>2334423434737473777uu37yyuuuuyyyyyyyyyyyy3yy3y333,y-2;gxzk2gggV$;44;44;$00ggg00$4VQQQIIxD0ggg;",
";ggggggg<sNNs31+:<;,:=<=;;1<1<12121>>33243343343733uu773yuuyyuyyyyyyyyyyyyyyyyy333333*<&glzk;dgg0.;4;444;.xggggg0;gRU;$;VDV0ggg;",
";ggggggg2Nsss*2+=<;;<<<:11<<114312223>3>234344337373733uuyuuyuuyyyyyyyyyyy3y3y3yy3333,<;glxk4ggg0.;04444;oggggg0gggg....4Dxg0gg;",
";ggggggg;gxff<44$$$$$$$$$*$*++*++#*++=*+*++,++,+$-----***-#-*-**,,#,##,-*************<i;gzxk2drdg$4ggggg0$000gg0Vgg;....0gxx0gg;",
";ggggggg;gxfNd461:141<11141<4474554u5q5y5i8qi78i06444404747u9774yy48977374y343<2334<2i5wxxxf<rdrg$0xgggg0$40ggg0xg44....xggx0gg;",
";ggggggg;gxVVV0>556685506508sqsqqssqssssssesqwsq000gg00gg000w0p0dg00s0008000i908080885qBVVNf<drdg$0DIDVx0$44gggggg4g$..gQ0gg0gg;",
";gggggg0;rxVVVBghhhhjhhhjhhjvssssvsssssssssslllsgjggggxrrxrxhhhhffhzhghhhhhhhhhhghhghhbCANNN<ddrg$0UQUxx0$44gggg0g44DI!!40g0ggg;",
";ggggggg:slzVVVVmmVVmVVVbCVVCMnCFCCCBCCCCCCCmCCBVSVVVVDVVVCmVCBCCBBAVVVVAVVVVVVVnVVBBBmCAfNf-gggg;400000;$;0ggg000g00gg;40;4ggg;",
";g0ggggg1szNxVmmmVmmmmmVmBnCVnCCCVCCBBBAnVVCmBCmVSVVVVVVVVVVmVABBACBVmVmVVmVBVVVVVVBBAmBVfff-gggg$;$$$$$$$;4ggggg;0gg4404;;gggg;",
";ggggggg4<slllxzxzxxxxxxxNxzNNlNsNNNssBAsBNszzNlzzxxgxzzxNxzxxNNxNNlzxxxzzNzxxNNzzzNNzlNfNf22gg0ggg4;;;;;4;4ggggg04;404$$;ggggg;",
";ggggggg811lxlxxxxxxxxNfxxlzlzsBBNsBBBBssNNzNzNlzNxxxxzzxNNNNNNlxNNlNNNNzNzNxzffNsNzzNzzNf224gggg0040440444ggg0gg0g04;;;0gg0ggg;",
";gggggggsp41<<22;22;2222<22<222222222222uy22223242244244;44;4;442323222322222222yy3<222222370ggggggggggggggggggg0ggggggggg0gggg;",
";gg0ggggss4-*OOOO@####@@#@###############+OOOOOO$-######-$;;;;;;OOOO############++OO######20ggggggggggggggggg0ggggggggggggggggg;",
";gggggggggs044412444224242;2424;2<4422;43711<22<;2;;442;;44;;44441434244442244441322444244dgggggggggggggggggggg0gggg0gggggggggg;",
";ggggggggggggggkggggggggggggggggggrdrdggssslggssggggggggggggggggggggggfgdggfgggggsssggdrdggggggggg0ggggggggggggggggggggg0g0gggg;",
";gggggg0gggggggggggggggggggggggggdrdggggggggggggggggggggggggggggggggggggdrgggggggsgggdggdgggggggggggggggggggggggggg00ggg0gggggg;",
";gggggggg000i0w00g00g0000000000g0000g000000009000000000g00000g000900d0000g000000w00s0000000g000g00000000ggggggg00g04;gxxgg0gggg;",
";g0ggggg000hzgghgrg040ggggggggg440rxhgggggd440ggggggggg440ggggggggs840ghggggxx0440gggggzgg0440grgggggg00gg0gggggg0;;4ggxVDggggg;",
";ggggggg00000ssd04g04g04g0gg04g00x440ss000h04g45g0g004g00g400ggg06h00g40ggg044x00g40rdr000x04x40gggg00g0ggggggggg;;xRQQUVxV0ggg;",
";ggggggg0g4gVDVVxg000g4jVVVxxg000g4xVVDxxg004g4xVVVVggg40g4gVDVVg0g00g0xVVVVg0g00ggxVVVVg0000g0VVVVxx0g0gggggggg0;0R!g0gDxVgggg;",
";0drgggg0g0gxxxxxg004g4gxxVgxg044g4ggxxxxg040g4ggxVgxg044g4gxgxxx0040g0gxxxxx0040g0gxVgxg0040g0gxxVxx000ggggggggg0gV$...0UVg0gg;",
";rdggggg0g4ggxxxg0040g4ggxxxg0040g4ggxVxg0000g4gxgVxg0040g4gxxxxgg000g4gxxxxg0004g0ggVxxg0000g0gxVxxg4g0ggggggg0xgg4..$$0xxx0gg;",
";ggggggg0g40gmVxg4004g4ggVVxg4004g4gxxxgg0044g;ggVgxg4004g4ggVVgg4004g4ggxggg0000g0ggxxgg000004gxxxgg400gg0gg0g0Vg44...$gggx0gg;",
";ggggggg0g;0ggxgg4404g;0ggxgg4404g40gggg04440g;0gggg04044g40gggg04040g40ggxg0;044g40gxxg0;000g40gggg0;00gggggggggg4g;;$;Uggg0gg;",
";ggggggg000;00044;444g440004;;444g44000444444044400444440044000444444g44g0004;440g4444044;444g;40004;;40gggggg0ggg44DgI!g0x0ggg;",
";gggggg04004444444444044444444;44004444444;440444444444;404444444444404444444444404444444;44404444444;;0gggggg0g0gg00VV0;044ggg;",
";ggggggg04;4;;4;4;;40;444;;4;;4444;4444444440;4;;4;4;;4444444444444444444444444044444;4;44444444444;44;0gggggggg040g04400;;gggg;",
";g0ggggg040ggg0ggg04400gggggg004400ggggggg0440ggggg0g000400ggggg0g00400ggg0g0g0040gg0gg0g000400gg0gggg40gggggg0gg0;4gg0;;;0gggg;",
";ggggggg4g00g0g000g04g0g0ggg00g04g0000gg00g04g000gg000g04g00gg0000g00g00ggg000g00g0gg0g00gg04g0g0gg00gg0ggggggggggg4;;$$40ggggg;",
";ggggggg0x4xVDVVgg000g4gxDVxg0g00g0gVDVVgg000g4gVDxVggg00g4gDVVVg0g00g4gDVVVg0g0004xVVxVg0g00g0xDDxxg0g0gggggggg0g0gg00ggg0gggg;",
";gggggg00g4gxxxxxg000g0gxjxxxg000g0ggxgxx0000g0ggxxgg0044g0ggVxxxg040ggggVxxgg000g0gxxVgx0040g0gxxxxg000ggggggg0ggggggggggggggg;",
";ggggggg0g4ggVmxgg004g4gjxVxgg004g4ggxVxg0004g4ggVxggg000g4ggxVgg0040g4gxxxgg0g40g0gxxxxg4g00g0ggxxxg000ggggggggggggggggggggggg;",
";ggggggg0g4ggxxxg0000g4ggxxxg0040g4gxxxgg0040g4gggxgg0044g4ggxxgg4g04g4ggVVgg4000g4ggVVgg404000gxxxgg000ggggggggggggggggggggggg;",
";ggggggg4g40gxxgg4444g;0gxggg4404g40gVgg04044g;0ggggg4040g40ggxg04044g40ggggg4044g4gggxg04000040gxxg0400ggggggggggggggggggggggg;",
";gg0gggg0044000044444g440g00;;;44g440g0044444g44ggg04;444g44ggg444440g4400g444444g40g000;;444g44g0004;40ggggggggggggggggggggggg;",
";ggggg0g400444444;4400404;04;44;4004444444444004444444444044444444444004444444444004444444444044;4444444ggggggggg0ggggggggggg0g;",
";ggggggg04;4;44444;40;;44;;44;;0444;;4;4;;;44;4;;;;4;4444444;;444;;44444;;4;;4;444;44;44;;;44444;;4;44;0gggggggggggggg0gggggggg;",
";ggggggg0400g0ggg00444000000g004040gg000g004400gg00000044000g0000004040gg0000004040g00000004400gg0000000ggg0ggggggggggggggggggg;",
";ggggggg0gg0gggg0gg00ggggggg0gg04ggg0ggg00g00g00gggg00g04gg00gggggg04g0g0gggggg04g0gggg00gg04g0ggggg0gg0ggggggggggggggggggggggg;",
";ggggggg0g4gVVVVgg000g4gxVVVg0g04g4gVVVVg0000g4gxVVxggg00g4gVDVVg0g00g4gVVVVg0g04g4xVVVVg0g0000gxDxxg0g0ggggggggggggggggggggggg;",
";ggggggg0g0gxxxxxg000g0gxVxxVg000g4gxxxxxg004g0gxxxxg0g40g0gxxxgx0040ggggxxxx0g40g0gxxxxx0000gggxxVxg0g0ggggggg0ggggggggggggggg;",
";ggggggggg4gxVVxgg004g4ggVxxg0040g0gxxxxgg040g4ggxxxg0040g0gxxxxg0g00g4gxVxxg0044gggxxVgg004000gxxxxg404gg0ggggggggg0gggggggggg;",
";ggggggg0g4ggxxxgg040g4ggxVgg0000g0ggxVxg0000g4ggxVgg0040g4ggxxgg0044g4ggxxgg4000g4ggVxgg4g44g0ggVxgg4g0ggggggggggggggggggg0ggg;",
";ggggggg0g;0gxxgg0004g40gVggg4000g;0gxggg4000g;0gVggg4004g;0gxggg4004g4ggVggg4044g;ggxxg04000g40xxxgg400ggggggg0ggggggggggggg0g;",
";ggggggg0g440gg04;440g44ggg00;444g440gg04;444g;40g000;444g440gg0;;;44g44gg004;0400;40g004;444g;0gg00;;40ggggggggggggggggggggggg;",
";ggggggg0004;4444;4440044444444440044444;44;400444444;444g0;4;444;4;4044444444440004;44;4;4440444044;4;0g0gggggggggg0gggggggggg;",
";ggggggg0;;;;4;;4;;;0;4;444;;;;444;;;;;;;;;40;;;4444;4;444;;;4;4;;4444;;444;;;;44;;;;44;;;4444;;;;;;4;;0ggggggggg0ggggg0ggggggg;",
";ggggg0gggggggggggggggggggggggggggggggggggggggggggggggggggggggggggggggggggggggg0ggggggg0ggggggggggggggggggggggggg0ggggggggggggg;",
";gggggggggggggggggggggggggggggggggg0ggggggggggggggggggggggggggggggggggggggggggggggg00gggggggg0ggggggggggggggggg0gg0gggggggggggg;",
";ggggggggggggggggggggggggggggggggggggggggggggggggggggggggggggggggggggggggggggggggggggggg0g0ggggggggggg0g0gggg00gg0gg0ggg0gggggg;",
";;;;;;;;;;;;;;;;;;;;;;;;;;;;;;;;;;;;;;;;;;;;;;;;;;;;;;;;;;;;;;;;;;;;;;;;;;;;;;;;;;;;;;;;;;;;;;;;;;;;;;;;;;;;;;;;;;;;;;;;;;;;;;;$"
};
