/* XPM */
static char *Pictogrammers_Material_Alphabet_Alpha_w_circle_161686840685[] = {
/* columns rows colors chars-per-pixel */
"16 16 2 1 ",
"  c None",
". c black",
/* pixels */
"                ",
"       ..       ",
"    ........    ",
"   ..........   ",
"  ............  ",
"  ... .... ...  ",
"  ... .  . ...  ",
" .... .  . .... ",
" .... .  . .... ",
"  ... .  . ...  ",
"  ...      ...  ",
"  ............  ",
"   ..........   ",
"    ........    ",
"       ..       ",
"                "
};
